<?xml version="1.0" standalone="no"?><!DOCTYPE svg PUBLIC "-//W3C//DTD SVG 1.1//EN" "http://www.w3.org/Graphics/SVG/1.1/DTD/svg11.dtd"><svg class="icon" width="200px" height="200.00px" viewBox="0 0 1024 1024" version="1.1" xmlns="http://www.w3.org/2000/svg"><path fill="#000000" d="M928 736H800V608c0-16-12.8-32-32-32s-32 12.8-32 32v128H608c-16 0-32 12.8-32 32s12.8 32 32 32h128v128c0 16 12.8 32 32 32s32-12.8 32-32V800h128c16 0 32-12.8 32-32s-12.8-32-32-32zM768 320c0-140.8-115.2-256-256-256S256 179.2 256 320c0 89.6 44.8 169.6 115.2 214.4C192 592 64 761.6 64 960h64c0-211.2 172.8-384 384-384 140.8 0 256-115.2 256-256zM512 512c-105.6 0-192-86.4-192-192s86.4-192 192-192 192 86.4 192 192-86.4 192-192 192z"  /></svg>