<?xml version="1.0" standalone="no"?><!DOCTYPE svg PUBLIC "-//W3C//DTD SVG 1.1//EN" "http://www.w3.org/Graphics/SVG/1.1/DTD/svg11.dtd"><svg class="icon" width="200px" height="200.00px" viewBox="0 0 1024 1024" version="1.1" xmlns="http://www.w3.org/2000/svg"><path fill="#000000" d="M855.333556 226.208998l-65.481364 0c-22.407336 0-54.920844-20.174482-64.005756-31.094182l-45.11757-53.937446c-16.010649-19.114336-51.17452-51.17452-107.269096-51.17452L454.571033 90.00285c-57.760518 0-89.630367 29.220508-110.939695 54.69367l-43.869137 52.460816c-7.986905 9.55768-41.559535 29.05064-63.778582 29.05064l-64.005756 0c-56.662511 0-102.726639 46.159296-102.726639 102.896508l0 501.95625c0 56.756655 46.064129 102.93437 102.726639 102.93437l683.35467 0c56.662511 0 102.726639-46.177716 102.726639-102.93437L958.059172 329.105506C958.060195 272.367271 911.996067 226.208998 855.333556 226.208998zM454.571033 158.891823l118.850875 0c26.722618 0 44.399209 14.421454 54.504358 26.495444l46.291302 55.356772c19.038612 22.785959 69.796646 54.334489 116.845195 54.334489l64.23293 0c18.697851 0 33.952276 15.272845 33.952276 34.028001l0 501.95625c0 18.755156-15.21554 34.028001-33.914414 34.028001L171.978886 865.09078c-18.735713 0-33.952276-15.272845-33.952276-34.028001L138.02661 329.087087c0-18.755156 15.21554-34.028001 33.952276-34.028001l66.162886 0c44.738947 0 96.027054-31.737842 114.384144-53.67241l43.906999-52.518121C412.329976 169.887248 426.939719 158.891823 454.571033 158.891823zM513.655709 751.21522c36.82879 0 72.900334-10.692526 104.315834-30.924313 15.934924-10.238179 20.590967-31.586392 10.409071-47.597041-4.996804-7.77815-12.679787-13.134135-21.687952-15.083533-8.894577-1.949398-18.168802-0.283456-25.889647 4.712325-20.363793 13.077853-43.6041 20.00359-67.147306 20.00359-68.812225 0-124.831077-56.114019-124.831077-125.058251 0-68.963675 56.018851-125.077693 124.831077-125.077693s124.793214 56.114019 124.793214 125.077693c0 18.98233 15.442714 34.425044 34.444487 34.425044 18.962887 0 34.368762-15.442714 34.368762-34.425044 0-106.966197-86.829578-193.965643-193.60544-193.965643S320.012408 450.322266 320.012408 557.288462C320.012408 664.215774 406.878824 751.21522 513.655709 751.21522z" /></svg>