<?xml version="1.0" standalone="no"?><!DOCTYPE svg PUBLIC "-//W3C//DTD SVG 1.1//EN" "http://www.w3.org/Graphics/SVG/1.1/DTD/svg11.dtd"><svg class="icon" width="200px" height="200.00px" viewBox="0 0 1024 1024" version="1.1" xmlns="http://www.w3.org/2000/svg"><path fill="#000000" d="M511.971859 66.861804c-245.826801 0-445.11159 199.284789-445.11159 445.138196s199.284789 445.138196 445.11159 445.138196c245.880013 0 445.164802-199.284789 445.164802-445.138196S757.852896 66.861804 511.971859 66.861804zM511.971859 901.396661c-214.68964 0-389.370055-174.679391-389.370055-389.396661s174.680415-389.396661 389.370055-389.396661c214.744899 0 389.42429 174.679391 389.42429 389.396661S726.716758 901.396661 511.971859 901.396661zM707.065186 484.130256 539.842627 484.130256 539.842627 316.906673c0-15.404852-12.410658-27.869744-27.869744-27.869744-15.350616 0-27.870768 12.465916-27.870768 27.869744l0 167.223582L316.879556 484.130256c-15.350616 0-27.870768 12.464893-27.870768 27.869744 0 15.404852 12.520151 27.869744 27.870768 27.869744l167.222559 0 0 167.223582c0 15.404852 12.520151 27.869744 27.870768 27.869744 15.459087 0 27.869744-12.465916 27.869744-27.869744L539.842627 539.869744l167.222559 0c15.459087 0 27.870768-12.465916 27.870768-27.869744C734.935953 496.594125 722.524273 484.130256 707.065186 484.130256z" /></svg>