<?xml version="1.0" standalone="no"?><!DOCTYPE svg PUBLIC "-//W3C//DTD SVG 1.1//EN" "http://www.w3.org/Graphics/SVG/1.1/DTD/svg11.dtd"><svg t="1578404673667" class="icon" viewBox="0 0 1024 1024" version="1.1" xmlns="http://www.w3.org/2000/svg" p-id="2468" xmlns:xlink="http://www.w3.org/1999/xlink" width="200" height="200"><defs><style type="text/css"></style></defs><path d="M197.878 860.31c-12.129 0-22.060-9.932-22.060-22.060 0-68.906 21.973-134.385 63.545-189.404 19.951-26.455 43.857-49.482 71.016-68.467 24.17-16.875 50.273-30.234 77.959-39.815-30.41-16.963-56.25-41.221-75.146-70.664-21.709-33.838-33.223-73.037-33.223-113.379 0-116.191 94.658-210.762 210.938-210.762s210.849 94.57 210.849 210.849c0 40.253-11.513 79.453-33.222 113.291-18.896 29.443-44.648 53.614-75.059 70.664 24.698 8.526 48.252 20.127 70.136 34.453l6.065 4.219c9.932 7.031 12.393 20.83 5.362 30.762-4.131 5.888-10.898 9.317-18.018 9.317-4.57 0-8.965-1.406-12.656-4.043l-5.010-3.516c-44.122-29.004-95.537-44.385-148.623-44.385-149.326 0-270.703 121.465-270.703 270.703-0.088 12.305-10.019 22.237-22.148 22.237zM490.906 189.881c-91.934 0-166.729 74.795-166.729 166.729s74.795 166.729 166.729 166.729 166.729-74.795 166.729-166.729-74.795-166.729-166.729-166.729zM842.205 721.356h-82.793v-80.859c0-4.131-3.516-7.383-7.734-7.383h-29.619c-4.219 0-7.646 3.34-7.646 7.383v80.859h-82.793c-4.219 0-7.734 3.34-7.734 7.471v28.828c0 4.131 3.516 7.471 7.734 7.471h82.793v80.859c0 4.131 3.428 7.471 7.646 7.471h29.619c4.219 0 7.734-3.34 7.734-7.471v-80.859h82.793c4.219 0 7.734-3.34 7.734-7.471v-28.828c0-4.131-3.516-7.471-7.734-7.471M842.205 721.356z" fill="#2c2c2c" p-id="2469"></path></svg>