<?xml version="1.0" standalone="no"?><!DOCTYPE svg PUBLIC "-//W3C//DTD SVG 1.1//EN" "http://www.w3.org/Graphics/SVG/1.1/DTD/svg11.dtd"><svg t="1578404761169" class="icon" viewBox="0 0 1026 1024" version="1.1" xmlns="http://www.w3.org/2000/svg" p-id="6817" xmlns:xlink="http://www.w3.org/1999/xlink" width="200.390625" height="200"><defs><style type="text/css"></style></defs><path d="M68.416 199.936h210.496L329.664 83.84c4.544-10.304 16.448-14.144 27.84-14.144h310.784c11.648 0 23.488 4.032 28.16 14.592l51.072 115.584h210.432c37.632 0 68.416 30.272 68.416 67.456V895.36c0 37.12-30.784 67.392-68.416 67.392H68.416A68.096 68.096 0 0 1 0 895.36V267.328c0-37.12 30.848-67.392 68.416-67.392z m444.864 156.48c-126.144 0-228.288 100.736-228.288 225.024 0 124.16 102.208 224.96 228.288 224.96 126.016 0 228.16-100.736 228.16-224.96s-102.144-225.024-228.16-225.024z" fill="#515151" p-id="6818"></path></svg>