<?xml version="1.0" standalone="no"?><!DOCTYPE svg PUBLIC "-//W3C//DTD SVG 1.1//EN" "http://www.w3.org/Graphics/SVG/1.1/DTD/svg11.dtd"><svg t="1578404839214" class="icon" viewBox="0 0 1024 1024" version="1.1" xmlns="http://www.w3.org/2000/svg" p-id="10713" xmlns:xlink="http://www.w3.org/1999/xlink" width="200" height="200"><defs><style type="text/css"></style></defs><path d="M512 964.608c-86.016 0-169.984-20.48-243.712-57.344l-172.032 45.056c-10.24 2.048-22.528 0-28.672-8.192-8.192-8.192-10.24-18.432-8.192-28.672l40.96-151.552c-53.248-73.728-81.92-159.744-81.92-249.856C16.384 262.144 239.616 59.392 512 59.392S1007.616 262.144 1007.616 512 784.384 964.608 512 964.608z m-239.616-120.832c6.144 0 10.24 2.048 14.336 4.096 67.584 36.864 145.408 57.344 225.28 57.344 239.616 0 434.176-176.128 434.176-391.168S751.616 120.832 512 120.832 77.824 294.912 77.824 512c0 81.92 26.624 159.744 77.824 225.28 6.144 8.192 8.192 18.432 6.144 26.624L131.072 880.64l133.12-34.816c2.048-2.048 6.144-2.048 8.192-2.048z" p-id="10714"></path></svg>