<?xml version="1.0" standalone="no"?><!DOCTYPE svg PUBLIC "-//W3C//DTD SVG 1.1//EN" "http://www.w3.org/Graphics/SVG/1.1/DTD/svg11.dtd"><svg t="1578493426061" class="icon" viewBox="0 0 1024 1024" version="1.1" xmlns="http://www.w3.org/2000/svg" p-id="9296" xmlns:xlink="http://www.w3.org/1999/xlink" width="200" height="200"><defs><style type="text/css"></style></defs><path d="M864 896H160c-52.8 0-96-43.2-96-96V224c0-52.8 43.2-96 96-96h704c52.8 0 96 43.2 96 96v64c0 17.6-14.4 32-32 32s-32-14.4-32-32v-64c0-17.6-14.4-32-32-32H160c-17.6 0-32 14.4-32 32v576c0 17.6 14.4 32 32 32h704c17.6 0 32-14.4 32-32v-64c0-17.6 14.4-32 32-32s32 14.4 32 32v64c0 52.8-43.2 96-96 96z m-96-352h-32c-17.6 0-32-14.4-32-32s14.4-32 32-32h32c17.6 0 32 14.4 32 32s-14.4 32-32 32z m160 96H672c-52.8 0-96-43.2-96-96v-64c0-52.8 43.2-96 96-96h256c17.6 0 32 14.4 32 32v192c0 17.6-14.4 32-32 32zM672 448c-17.6 0-32 14.4-32 32v64c0 17.6 14.4 32 32 32h224V448H672z" p-id="9297"></path></svg>