<?xml version="1.0" standalone="no"?><!DOCTYPE svg PUBLIC "-//W3C//DTD SVG 1.1//EN" "http://www.w3.org/Graphics/SVG/1.1/DTD/svg11.dtd"><svg t="1578495657606" class="icon" viewBox="0 0 1024 1024" version="1.1" xmlns="http://www.w3.org/2000/svg" p-id="5998" xmlns:xlink="http://www.w3.org/1999/xlink" width="200" height="200"><defs><style type="text/css"></style></defs><path d="M216.517724 410.703089s17.657756-156.955057 76.516943-219.739577c58.859187-62.78452 178.538146-153.033886 337.457951-84.363447 158.919805 68.670439 154.994472 160.88039 158.919805 258.980423l11.771837 45.122601s98.09587 113.793041 84.363447 235.436748c-13.732423 121.643707-41.197268 109.87187-102.021203 52.973269l-37.276097 56.898601s109.87187 84.36761 51.00852 139.301464c-58.859187 54.933854-202.081821 41.197268-247.208586-9.811252-45.122602-51.00852-49.047935-15.697171-49.047934-15.697171s-52.973268 70.635187-113.793041 70.635187-221.700163-49.052098-180.498732-123.604293c41.197268-74.556358 72.59161-60.819772 72.59161-60.819772l-45.122602-64.745106s-47.08735 60.819772-66.705691 66.701529c-19.618341 5.890081-54.933854-82.398699-37.28026-172.652228 17.653593-90.253528 27.464846-141.266211 86.324033-174.616976z m-70.631025 0l-8.429268 14.977041s-9.228488-1.244618-60.241171 73.31174c-51.012683 74.556358-37.276098 255.055089-9.811252 298.221268 27.469008 43.162016 82.402862 39.236683 82.402862 39.236683-17.657756 98.09587 31.394341 123.604293 31.394341 123.604293 135.37613 137.336715 319.800195-7.850667 319.800196-7.850667 58.859187 70.631024 117.718374 66.705691 241.318504 58.86335 123.604293-7.850667 129.490211-184.428228 129.490211-184.428228 71.222114 11.409691 84.36761-62.780358 84.36761-62.780358 100.060618-227.590244-98.09587-361.005789-98.09587-361.005788C916.421724 164.968065 662.935935-27.564748 436.257301 16.346537 122.343024 77.170472 145.886699 410.703089 145.886699 410.703089z" fill="#00CCFF" p-id="5999"></path></svg>