<?xml version="1.0" standalone="no"?><!DOCTYPE svg PUBLIC "-//W3C//DTD SVG 1.1//EN" "http://www.w3.org/Graphics/SVG/1.1/DTD/svg11.dtd"><svg t="1578493376170" class="icon" viewBox="0 0 1130 1024" version="1.1" xmlns="http://www.w3.org/2000/svg" p-id="7804" xmlns:xlink="http://www.w3.org/1999/xlink" width="220.703125" height="200"><defs><style type="text/css"></style></defs><path d="M198.81772646 183.69699331h184.55005952v63.74725396H262.57356924q-13.42635166 0.84183099-22.23122103 9.2257842-8.81345957 8.3925434-8.81345959 21.81889643v138.4125443H161.90599539v-195.45950705q0-15.9432558 10.47994253-26.42319833 10.48853273-10.48853273 26.43178854-11.33036372z m241.59702227 304.51103548l-25.16904136 46.1289236L521.78033026 670.24118415l242.43885464-281.86748845-24.327209-26.83552291-213.91107815 197.96782098-85.56614902-71.29796498z m327.16317129-304.51962569h184.55006091q15.9432558 0.84183099 26.42319694 11.33036372 10.47994252 10.47994252 11.3303637 26.42319833v195.45950705h-69.63148342v-138.4125443q-0.84183099-13.42635166-9.64670036-21.81889643-8.80486937-8.38395318-21.38939006-9.2257842h-121.63604771v-63.75584417z m222.30362155 408.53734443v195.45950705q-0.84183099 15.93466559-11.3303637 26.42319832-10.47994252 10.47994252-26.42319694 11.32177351H767.57792002v-63.74725396h121.63604771q12.58452068-0.84183099 21.38939006-9.65529058 8.80486937-8.80486937 9.64670036-22.22263082v-137.57930352h69.63148342zM383.36778598 824.58839541H198.81772646q-15.9432558 0-26.42319833-10.47994251-10.48853273-10.47994252-10.48853274-26.42319832v-195.45950705H231.52888862v137.57930352q0 13.41776145 8.81345959 22.22263082 8.80486937 8.81345957 22.23122103 8.81345959h120.79421674v63.75584418z" p-id="7805"></path></svg>