<?xml version="1.0" standalone="no"?><!DOCTYPE svg PUBLIC "-//W3C//DTD SVG 1.1//EN" "http://www.w3.org/Graphics/SVG/1.1/DTD/svg11.dtd"><svg t="1578495913403" class="icon" viewBox="0 0 1152 1024" version="1.1" xmlns="http://www.w3.org/2000/svg" p-id="17275" xmlns:xlink="http://www.w3.org/1999/xlink" width="225" height="200"><defs><style type="text/css"></style></defs><path d="M666.126362 516.843166s0 29.334005 117.33602 12.222502a2872.287983 2872.287983 0 0 0 8.555751 427.787572s-8.555751 29.94513-36.056381-73.335012-34.834131-127.725146-46.445508-132.614147-67.223761 31.778505-94.724391 91.05764a738.850249 738.850249 0 0 0-43.389882 131.391897s-18.333753 14.055877-18.944878-8.555751 15.278128-141.781024 15.278128-141.781024a782.851257 782.851257 0 0 0-37.278632 126.502896c-5.500126 43.389882-16.500378 4.277876-14.667002-9.166876a224.894038 224.894038 0 0 0 0-108.780269s-14.055877-6.722376-105.724643 133.836398c0 0-7.944626 20.778253-16.500378 12.222502s0-22.000504 9.778002-44.612133a829.90789 829.90789 0 0 1 61.11251-125.891771 113.669269 113.669269 0 0 1-56.223509-3.055625c-20.167128-9.778002-44.001007-29.334005-28.72288-103.280143 6.111251-29.94513 6.722376 0 4.277876 21.389379-4.889001 45.834383 13.444752 72.112762 47.667758 64.779261a93.502141 93.502141 0 0 0 55.001259-37.278631l183.337531-230.394164z m427.787572-459.566077a166.837153 166.837153 0 0 1-116.11377 38.500882c-37.278631 0-61.11251 0-65.390386-17.722628s56.223509-57.44576 136.280898-53.167884c0 0-70.890512-37.889756-293.340049-20.167129S228.560788 160.557232 228.560788 160.557232s0 12.222502-27.500629-8.555752A177.22628 177.22628 0 0 0 122.225021 116.556224c-10.389127 0-29.334005 0-33.000756 45.223258L0 389.729145a147.892275 147.892275 0 0 0 133.225272 17.722628 118.55827 118.55827 0 0 0 55.00126-154.003526s10.389127 0 20.778253 15.889253A797.518259 797.518259 0 0 0 372.786313 370.173142c39.723132 17.722628 255.450293 94.113266 305.562551 107.558018a165.003778 165.003778 0 0 0 136.280898-20.167129 1796.707802 1796.707802 0 0 0 183.337531-216.949411S611.125103 306.005006 498.678084 258.337248c0 0-17.111503 8.555751-25.667254 3.666751s0-36.667506 10.389126-33.000756a42.167632 42.167632 0 0 1 15.278128 12.222502s125.891771 47.056633 510.900586-22.611629c0 0 113.669269-111.835894 86.168639-160.725902zM488.900082 139.778978c-21.389379 0-22.000504-33.611881-12.833627-56.223509s39.112007-21.389379 38.500882 4.277875-6.111251 49.501133-25.667255 51.945634z" fill="#D83226" p-id="17276"></path></svg>