<?xml version="1.0" standalone="no"?><!DOCTYPE svg PUBLIC "-//W3C//DTD SVG 1.1//EN" "http://www.w3.org/Graphics/SVG/1.1/DTD/svg11.dtd"><svg t="1578495720006" class="icon" viewBox="0 0 1024 1024" version="1.1" xmlns="http://www.w3.org/2000/svg" p-id="7604" xmlns:xlink="http://www.w3.org/1999/xlink" width="200" height="200"><defs><style type="text/css"></style></defs><path d="M83.220536 279.921475c1.346458 18.838597 36.271681 44.409483 69.850448-1.346458C238.063175 162.756031 360.224686 56.574847 514.370474 83.433135c30.897662 5.385831 0 74.019742 0 74.019742s-163.854457 26.917344-231.023799 96.897712c-67.157532 69.980369-67.157532 102.283543-67.157532 102.283544L95.315034 380.84675 225.590725 471.023984s24.188995 4.039373 32.244119-47.102398c8.066935-51.141772 85.960696-162.850519 154.464686-160.157604l68.503989 2.692916-41.63389 331.063247-2.102364 16.736233-104.007954 14.220483v56.527603l84.62605 8.066935v74.941003h53.078781v-47.622084h132.519786v94.665427c0 165.094615-348.390032 178.724547-393.260144 14.669302-11.244103-41.126016 41.964599-262.37028 30.401598-263.952958l-69.425251-9.448827s-63.106348 283.972659-18.933085 324.992376c44.173262 41.019717 22.086631 44.173262 22.086631 44.173263-60.590598 37.500029-38.114203 47.834682-59.940991 91.511881h527.067335s138.720579-22.086631 135.555222-44.173262c-5.314965-37.275619-9.366149-19.948834-32.374041-56.692957-12.283474-19.641747-22.41734-47.881927-18.106313-85.299278 9.448826-82.039433 53.645711-353.409721 53.645711-353.409721s-9.472448-222.756077-119.905604-271.358476c-91.629992-40.322866-39.366172 148.287516-18.708676 247.547434 9.83859 47.385863 6.649611 71.574858-27.56695 108.744178-45.826807 49.771692-95.716609 31.818922-95.716609 31.818922l63.106347-485.929507s135.673333 3.153546 198.779681 113.586701c63.118159 110.433156 69.42525 170.397769 85.20479 217.724577 15.77954 47.338619 75.732342 0 75.732341 0C877.996738 124.488285 595.8666-109.015832 272.456902 67.842572 175.6773 120.755998 78.543367 214.346622 83.220536 279.921475z" fill="#E77817" p-id="7605"></path><path d="M323.704973 440.89404a35.775618 33.980341 0 1 0 71.551236 0 35.775618 33.980341 0 1 0-71.551236 0Z" fill="#E77817" p-id="7606"></path></svg>