<?xml version="1.0" standalone="no"?><!DOCTYPE svg PUBLIC "-//W3C//DTD SVG 1.1//EN" "http://www.w3.org/Graphics/SVG/1.1/DTD/svg11.dtd"><svg t="1579014719090" class="icon" viewBox="0 0 1024 1024" version="1.1" xmlns="http://www.w3.org/2000/svg" p-id="14718" xmlns:xlink="http://www.w3.org/1999/xlink" width="200" height="200"><defs><style type="text/css"></style></defs><path d="M469.504 713.728l39.424 39.424 39.936-39.424-39.936-111.104z" fill="#3B82FE" p-id="14719"></path><path d="M64.512 66.048v888.832h888.832V66.048h-888.832z m724.992 710.144h-560.128c-1.024-6.144-1.024-23.04 0-40.96 4.096-31.744 16.384-54.784 35.84-69.12 13.824-10.24 31.744-15.36 47.104-18.944 7.68-1.024 15.36-3.584 21.504-5.12 38.4-8.704 77.824-17.92 107.008-56.32 2.56-2.56 17.92-25.6-23.04-75.264-17.92-21.504-29.184-51.2-34.304-88.064-5.12-38.4-1.536-74.24 2.56-96.768 5.12-26.624 20.48-51.2 43.52-69.12s51.2-26.624 79.36-26.624 56.32 8.704 79.36 26.624 38.4 41.984 43.52 70.144c4.096 23.04 7.68 58.88 2.56 96.768-5.12 35.84-16.384 65.024-34.304 88.064-40.96 49.664-24.064 72.704-23.04 75.264 29.184 39.424 69.12 48.64 107.008 56.32 7.68 1.024 15.36 3.584 23.04 5.12 13.824 4.096 31.744 8.704 46.08 18.944 40.96 29.696 37.376 93.696 36.352 109.056z" fill="#3B82FE" p-id="14720"></path></svg>