<?xml version="1.0" standalone="no"?><!DOCTYPE svg PUBLIC "-//W3C//DTD SVG 1.1//EN" "http://www.w3.org/Graphics/SVG/1.1/DTD/svg11.dtd"><svg t="1578495775272" class="icon" viewBox="0 0 1024 1024" version="1.1" xmlns="http://www.w3.org/2000/svg" p-id="8934" xmlns:xlink="http://www.w3.org/1999/xlink" width="200" height="200"><defs><style type="text/css"></style></defs><path d="M1013.418667 127.2832c15.5648-46.660267 12.663467-82.5344-8.8064-107.793067-25.258667-21.4016-61.2352-24.2688-107.997867-8.8064-46.660267 15.496533-88.405333 41.7792-125.371733 78.6432l-116.667734 116.565334L169.540267 90.112c-7.7824-2.389333-15.086933-0.512-21.879467 5.802667L54.340267 189.098667a22.596267 22.596267 0 0 0-6.587734 19.694933 24.507733 24.507733 0 0 0 12.3904 17.476267l370.551467 203.298133-188.928 188.6208-141.550933-38.570667a14.984533 14.984533 0 0 0-5.802667-0.682666 22.7328 22.7328 0 0 0-16.7936 6.587733L7.5776 656.042667c-4.881067 5.802667-7.0656 11.912533-6.587733 18.193066 1.024 7.7824 4.096 13.380267 9.489066 16.7936l183.842134 137.659734 137.864533 183.534933a26.112 26.112 0 0 0 17.476267 9.489067h1.501866a23.04 23.04 0 0 0 16.7936-6.485334l70.007467-69.973333c6.314667-6.7584 8.2944-14.267733 5.802667-22.528l-38.673067-141.380267 188.928-188.7232 203.502933 370.005334a20.241067 20.241067 0 0 0 15.291734 11.707733 15.701333 15.701333 0 0 0 5.085866 0.682667 20.821333 20.821333 0 0 0 13.892267-4.369067l93.3888-69.9392c8.2944-6.792533 11.195733-14.779733 8.8064-24.064L817.152 369.834667l117.418667-117.282134c36.932267-36.9664 63.214933-78.711467 78.813866-125.269333z" fill="#0069E6" p-id="8935"></path></svg>