<?xml version="1.0" standalone="no"?><!DOCTYPE svg PUBLIC "-//W3C//DTD SVG 1.1//EN" "http://www.w3.org/Graphics/SVG/1.1/DTD/svg11.dtd"><svg t="1578495749571" class="icon" viewBox="0 0 1024 1024" version="1.1" xmlns="http://www.w3.org/2000/svg" p-id="8689" xmlns:xlink="http://www.w3.org/1999/xlink" width="200" height="200"><defs><style type="text/css"></style></defs><path d="M588.78 956.85H139.52c-42.71 0-80.63-36.43-80.63-77.42V146.71c0-41 37.92-77.31 80.63-77.31h730.19c42.67 0 80.63 36.38 80.63 77.31v441.45h-71.16V146.71c0-4.55-4.72-9.11-9.47-9.11H139.52c-4.76 0-9.5 4.58-9.5 9.11v732.75c0 4.58 4.74 9.11 9.5 9.11h449.26z" fill="#FF4545" p-id="8690"></path><path d="M719.47 779s-5.47 5.46-12.47 5.46-12.5-5.46-12.5-5.46c0-20.31 6.25-45.31 8.59-53.9-2.34-1.57-3.12-3.13-3.12-6.25a7.49 7.49 0 0 1 5.46-7v-14.09l3.91 2.34v11.72a7.5 7.5 0 0 1 5.47 7c0 2.34-1.57 4.68-3.13 6.25a193.22 193.22 0 0 1 6.25 31.24 206.63 206.63 0 0 1 1.54 22.69z m0 0M729.63 774.31v8.59c0.78 7.81 3.12 15.62 8.59 22.66 3.13 3.9 4.69 3.9 9.38 2.34 1.56 0 3.9 7 4.68 8.59 5.47 12.5 14.85 27.34 32 33.59a59.33 59.33 0 0 0 36.72 2.35c12.5-3.91 22.66-12.5 30.47-23.44 7-9.37 9.37-15.62 10.93-18 0.78-0.78 0.78-2.34 1.57-2.34s2.34 0.78 3.12 0.78c2.35 0 3.91-1.56 5.47-3.12a44.42 44.42 0 0 0 8.59-22.66v-8.59c0-4.69-3.12-8.59-8.59-8.59h-0.78l-0.78-1.57s0-3.9 0.78-5.46a164.71 164.71 0 0 1 1.56-19.53c0-2.34 0.78-5.47 0.78-7.81l-16.4-4.69c-0.78 0-7.81-1.56-7.81-1.56-3.91-0.78-26.56-2.35-48.44-3.13-17.18 0-33.58 1.57-37.49 2.35-1.56 0-3.91 0.78-4.69 0.78 0 0-12.5 2.34-17.18 4.69l-4.69 1.56c0 6.25 0.78 12.5 0.78 18.74 0 4.69 0.78 10.16 0.78 14.85h-0.78c-5.47 0-7.81 4.68-8.59 8.59zM755.41 761c14.06 0 26.56-0.78 37.49-3.12 3.91-0.79 8.59-1.57 13.28-2.35a87.18 87.18 0 0 0 34.37-15.62c4.69 5.47 10.94 10.15 20.31 14.06h0.78v3.91c-0.78 12.49-2.34 28.9-4.68 37.49-2.35 10.16-19.53 50.78-53.12 50-5.47 0-10.94-1.56-15.63-3.12-17.18-5.47-26.55-21.87-33.58-43.75q-4.7-14.06-4.69-32.8a26.57 26.57 0 0 0-0.78-7.81 6.82 6.82 0 0 0 6.25 3.12z m0 0" fill="#FF4545" p-id="8691"></path><path d="M871 702.44c0-4.68 0-2.34-0.78-7-0.78-2.34-0.78-3.9-3.13-4.68a31.33 31.33 0 0 0-7-3.91c-6.25-3.12-12.5-5.47-19.53-6.25a171.38 171.38 0 0 0-44.56-3.15 152 152 0 0 0-18.72 1.55c-10.15 1.56-20.31 3.91-29.68 9.37-3.13 0.78-5.47 2.35-6.25 6.25C739 704 739 712.6 739 722v0.78a116.59 116.59 0 0 1 31.25-6.25c3.12-0.78 15.62-1.56 27.34-1.56 10.94 0 21.87 0 33.59 0.78 7.81 0.78 16.4 1.56 24.21 3.13a14.46 14.46 0 0 1 5.47 1.56l10.94 3.12c0-5.46 0-16.4-0.78-21.09z m0 0" fill="#FF4545" p-id="8692"></path><path d="M733.54 693.07c1.56-7 6.24-9.37 10.15-11.72 9.37-5.47 19.53-8.59 32.81-10.15 5.47-0.78 25.78-1.56 28.9-1.56 13.28 0 25 0.78 36.72 3.12a83.55 83.55 0 0 1 21.08 7c2.35 1.56 7.82 4.69 7.82 4.69 3.9 2.34 5.46 6.25 6.25 9.37a55.45 55.45 0 0 1 0.78 10.94v3.12s27.34-15.62 40.62-23.43a49.39 49.39 0 0 0-4.69-3.13c-34.37-19.53-68.74-39.06-103.89-58.58-3.91-2.35-6.25-2.35-10.16 0-33.59 19.52-68 38.27-101.55 57.8-2.34 1.56-3.9 2.35-7 4.69 6.25 3.12 39.84 23.43 39.84 23.43 0.78-6.25 1.56-10.93 2.35-15.62z m181.22 195.29c-17.18-10.94-58.58-25.78-59.37-25.78 0 0-10.15 21.09-14.06 29.68-3.12 5.47-7.81 6.25-10.93 0.78-3.13-4.68-10.94-15.62-11.72-17.18-2.34-3.13-4.69-3.91-7.81-0.78-0.78 0.78-3.91 3.9-5.47 3.9s-4.69-3.12-5.47-3.9c-3.12-3.13-4.68-3.13-7.81 0.78s-7.81 11.72-10.93 14.84c-6.25 7.81-11.72 6.25-14.85 0-3.9-10.15-11.71-28.9-11.71-28.9-0.79 0-42.19 14.84-59.37 25.78C656.2 911.79 657 954 657 954h299.16c0.78 1.57 5.47-34.37-41.4-65.61z m0 0" fill="#FF4545" p-id="8693"></path><path d="M956.94 960.22H657c-3.12 0-5.47-2.34-5.47-4.68a86.91 86.91 0 0 1 40.62-71.09c17.19-11.72 60.15-26.56 60.93-26.56a4.76 4.76 0 0 1 5.47 2.35c0 0.78 0 0.78 2.35 4.68 2.34 6.25 7 17.19 10.15 24.22a9.65 9.65 0 0 0 1.56 2.34 17.46 17.46 0 0 0 3.91-3.12 71.43 71.43 0 0 1 7.81-10.16 16.22 16.22 0 0 0 3.12-4.69c1.57-2.34 3.91-4.68 7.82-4.68s6.24 2.34 7.81 3.9l1.56 1.57c0.78-0.79 1.56-0.79 1.56-1.57 2.35-2.34 5.47-3.9 7.81-3.9 3.13 0 5.47 1.56 7.81 4.68a54.4 54.4 0 0 1 5.47 7.82c2.35 3.12 4.69 7 6.25 9.37l1.56 1.56a2.71 2.71 0 0 0 0.79-1.56c1.56-3.12 14.06-29.68 14.84-29.68a4.76 4.76 0 0 1 5.47-2.35c1.56 0 43.74 14.84 60.93 26.56a119.2 119.2 0 0 1 27.34 24.22 95.62 95.62 0 0 1 13.27 22.65c2.35 5.47 3.13 11.72 3.91 17.19 0 0.78 0.78 6.25 0 8.59-0.78 0.78-3.12 2.34-4.69 2.34z m-294.49-10.15h289c-0.79-10.16-6.25-34.37-39.84-57-13.28-8.59-43-20.31-53.9-24.21-3.13 6.25-9.38 18.75-12.5 25.78-1.56 2.34-3.91 7-9.37 7.81a12.1 12.1 0 0 1-10.91-5.45c-1.56-2.34-3.91-5.47-6.25-9.37s-4.69-6.25-5.47-7.82l-2.34 2.35c-2.34 2.34-3.91 3.12-6.25 3.12-1.56 0-3.91-0.78-6.25-3.12-0.78-0.78-2.34-1.56-2.34-2.35-0.78 1.57-2.35 3.13-3.13 4.69a132.81 132.81 0 0 1-7.81 10.94c-5.47 7-10.15 7.81-13.28 7a11.58 11.58 0 0 1-9.37-8.59c-3.13-7-7-18-10.16-24.22-11.72 3.9-40.62 14.84-53.9 24.22-28.9 17.15-34.38 44.5-35.93 56.22z m215.6-236.69a2.89 2.89 0 0 1-2.35-0.78q-2.34-1.17-2.34-4.69v-3.12a48.16 48.16 0 0 0-0.78-10.16c-0.78-3.12-1.56-4.69-3.91-6.25s-5.47-3.9-7-4.68a82.88 82.88 0 0 0-19.52-7c-10.94-2.35-22.66-3.13-35.16-3.13-3.12 0-22.65 0.78-28.12 1.56-12.5 1.57-21.87 4.69-30.46 9.38-3.91 2.34-6.25 3.9-7.82 8.59a70.17 70.17 0 0 0-1.59 14.03 6.76 6.76 0 0 1-2.34 4.69 6.69 6.69 0 0 1-5.47 0s-34.37-19.53-39.84-23.44c-3.9 0-4.68-1.56-4.68-3.12s0.78-3.91 2.34-4.69c0.78-0.78 1.56-0.78 2.34-1.56 1.57-0.78 3.13-2.34 4.69-3.13 7-3.9 14.84-7.81 21.87-12.49 26.56-14.85 53.12-30.47 80.46-45.31 5.47-3.13 10.16-3.13 14.84 0 23.44 13.28 47.65 27.34 71.09 40.62 10.93 6.25 21.09 12.5 32 18.75a16.22 16.22 0 0 1 4.69 3.12l0.78 0.78a4.43 4.43 0 0 1 0 7.81c-12.5 7-40.62 23.44-40.62 23.44a5.9 5.9 0 0 1-3.12 0.78z m-72.65-49.21a190.72 190.72 0 0 1 37.5 3.9 71 71 0 0 1 22.65 7.81c2.34 1.57 7.81 4.69 8.59 4.69 5.47 3.91 7 8.59 8.59 12.5a21.39 21.39 0 0 1 0.79 7c7-3.91 17.18-10.16 25.77-14.84-10.15-5.47-19.53-10.94-29.68-16.4-23.43-13.29-47.65-26.57-71.08-40.63-2.35-1.56-3.13-1.56-4.69 0-28.12 14.85-54.68 29.69-81.24 44.53l-21.09 11.72c7.81 4.68 18.75 10.93 25.78 14.84a23.09 23.09 0 0 1 1.56-7.81c2.34-9.38 8.59-12.5 12.5-14.84 9.37-5.47 20.31-8.6 34.37-10.94 6.25-0.78 26.56-1.56 29.68-1.56z m0 0M776.5 775.09a4.69 4.69 0 1 0 4.69-4.69 4.69 4.69 0 0 0-4.69 4.69z m0 0M824.93 775.09a4.69 4.69 0 1 0 4.69-4.69 4.69 4.69 0 0 0-4.69 4.69z m0 0M820.24 821.18s-7 4.68-14.84 4.68-14.84-4.68-14.84-4.68a48.23 48.23 0 0 0 29.68 0z m0 0" fill="#FF4545" p-id="8694"></path><path d="M776.5 654.79c-1.56-2.34-0.78-5.46 1.56-6.25l19.53-10.93c2.34-1.56 5.47-0.78 6.25 1.56 1.56 2.34 0.78 5.47-1.56 6.25l-18.75 11.72a6.3 6.3 0 0 1-7-2.35z m0 0M762.44 660.26a4.69 4.69 0 1 0 4.69-4.69 4.69 4.69 0 0 0-4.69 4.69z m0 0M507.67 376.66H434.5v81.73h-80v76.51h80v83.46h73.17V536.1h80v-77.71h-80zM615 330c-41.58 0-88.91-40.28-141.93-43.29v-0.28c-1 0-2.07 0.11-3.09 0.14s-2-0.14-3.08-0.14v0.28c-53 3-100.36 43.29-141.95 43.29-23 0-37.39 64-34.61 134.65C292.59 408.71 305.78 364 325 364c41.59 0 88.92-40.27 142-43.27v-0.3c1 0 2.06 0.12 3.08 0.15s2.06-0.15 3.09-0.15v0.3c53 3 100.35 43.27 141.93 43.27 19.23 0 32.41 44.71 34.6 100.65C652.44 394 638 330 615 330z m-2.46 307c-62.11 59.79-119.66 76.87-139.07 81v1.24s-1.24-0.16-3.49-0.55c-2.24 0.39-3.46 0.55-3.46 0.55V718c-19.45-4.16-77-21.24-139.09-81-84.04-81-69.5-335.49-20.83-335.49 46.87 0 100.19-48.07 160-51.47v-0.32c1.16 0 2.3 0.13 3.46 0.17s2.31-0.17 3.49-0.17v0.28c59.73 3.4 113.06 51.47 159.92 51.47 48.69 0 63.22 254.51-20.85 335.44z m0 0" fill="#FF4545" p-id="8695"></path></svg>