<?xml version="1.0" standalone="no"?><!DOCTYPE svg PUBLIC "-//W3C//DTD SVG 1.1//EN" "http://www.w3.org/Graphics/SVG/1.1/DTD/svg11.dtd"><svg t="1579014531576" class="icon" viewBox="0 0 1024 1024" version="1.1" xmlns="http://www.w3.org/2000/svg" p-id="4707" xmlns:xlink="http://www.w3.org/1999/xlink" width="200" height="200"><defs><style type="text/css"></style></defs><path d="M508.181333 42.666667c-259.2 0-469.333333 210.133333-469.333333 469.333333s210.133333 469.333333 469.333333 469.333333 469.333333-210.133333 469.333334-469.333333c0.021333-259.2-210.112-469.333333-469.333334-469.333333z m0.021334 896c-235.648 0-426.666667-191.018667-426.666667-426.666667s191.018667-426.666667 426.666667-426.666667 426.666667 191.018667 426.666666 426.666667-191.04 426.666667-426.666666 426.666667z" fill="#71757B" p-id="4708"></path><path d="M508.202667 512m-42.666667 0a42.666667 42.666667 0 1 0 85.333333 0 42.666667 42.666667 0 1 0-85.333333 0Z" fill="#71757B" p-id="4709"></path><path d="M271.253333 738.282667l339.413334-113.130667 113.130666-339.413333-339.413333 113.130666-113.130667 339.413334z m396.544-396.565334L582.656 597.12 327.253333 682.282667l85.141334-255.402667 255.402666-85.162667z" fill="#71757B" p-id="4710"></path></svg>