<?xml version="1.0" standalone="no"?><!DOCTYPE svg PUBLIC "-//W3C//DTD SVG 1.1//EN" "http://www.w3.org/Graphics/SVG/1.1/DTD/svg11.dtd"><svg t="1578495983032" class="icon" viewBox="0 0 1024 1024" version="1.1" xmlns="http://www.w3.org/2000/svg" p-id="19701" xmlns:xlink="http://www.w3.org/1999/xlink" width="200" height="200"><defs><style type="text/css"></style></defs><path d="M348.16 5.12C235.52 33.28 197.12 171.52 279.04 256c94.72 94.72 256 28.16 256-104.96 0-97.28-94.72-171.52-186.88-145.92z m358.4 23.04c-10.24 2.56-38.4 10.24-61.44 17.92-46.08 12.8-46.08 12.8-43.52 17.92C665.6 335.36 248.32 455.68 161.28 192c-5.12-15.36 0-15.36-56.32 0-79.36 20.48-74.24 20.48-71.68 25.6 12.8 117.76 181.76 248.32 327.68 253.44 40.96 2.56 43.52 2.56 23.04 10.24C204.8 547.84 79.36 780.8 115.2 983.04c5.12 33.28 5.12 33.28 28.16 25.6l74.24-20.48c71.68-17.92 69.12-17.92 66.56-28.16-17.92-61.44 2.56-158.72 46.08-222.72 135.68-202.24 445.44-163.84 527.36 66.56 2.56 7.68 5.12 15.36 7.68 15.36 2.56 0 153.6-35.84 156.16-38.4 2.56-2.56-15.36-48.64-25.6-71.68-76.8-163.84-230.4-263.68-412.16-268.8l-48.64-2.56 20.48-12.8c138.24-79.36 212.48-238.08 181.76-384-12.8-20.48-10.24-20.48-30.72-12.8z" fill="#F3990F" p-id="19702"></path></svg>