<?xml version="1.0" standalone="no"?><!DOCTYPE svg PUBLIC "-//W3C//DTD SVG 1.1//EN" "http://www.w3.org/Graphics/SVG/1.1/DTD/svg11.dtd"><svg t="1578496118392" class="icon" viewBox="0 0 1024 1024" version="1.1" xmlns="http://www.w3.org/2000/svg" p-id="24499" xmlns:xlink="http://www.w3.org/1999/xlink" width="200" height="200"><defs><style type="text/css"></style></defs><path d="M994.986667 296.96v-29.013333c0-22.186667-1.706667-44.373333-5.12-63.146667-3.413333-22.186667-10.24-40.96-18.773334-59.733333-10.24-20.48-23.893333-37.546667-39.253333-51.2-15.36-15.36-32.426667-29.013333-51.2-39.253334-20.48-11.946667-39.253333-17.066667-61.44-20.48-18.773333-3.413333-40.96-5.12-63.146667-5.12H266.24c-22.186667 0-44.373333 1.706667-63.146667 5.12-22.186667 3.413333-40.96 10.24-59.733333 18.773334-20.48 10.24-37.546667 23.893333-51.2 39.253333-15.36 15.36-29.013333 32.426667-39.253333 51.2-8.533333 20.48-15.36 39.253333-18.773334 61.44-3.413333 18.773333-5.12 40.96-5.12 63.146667V757.76c0 22.186667 1.706667 44.373333 5.12 63.146667 3.413333 22.186667 10.24 40.96 18.773334 59.733333 10.24 20.48 23.893333 37.546667 39.253333 51.2 15.36 15.36 32.426667 29.013333 51.2 39.253333 18.773333 10.24 39.253333 15.36 59.733333 18.773334 20.48 3.413333 40.96 5.12 63.146667 5.12H756.053333c22.186667 0 44.373333-1.706667 63.146667-5.12 22.186667-3.413333 40.96-10.24 59.733333-18.773334 20.48-10.24 37.546667-23.893333 51.2-39.253333 15.36-15.36 29.013333-32.426667 39.253334-51.2 10.24-18.773333 15.36-39.253333 18.773333-59.733333 3.413333-18.773333 5.12-40.96 5.12-63.146667v-29.013333V332.8c3.413333-10.24 3.413333-22.186667 1.706667-35.84z" fill="#FF0082" p-id="24500"></path><path d="M686.08 793.6v-126.293333c35.84 1.706667 69.973333 1.706667 104.106667 5.12 18.773333 1.706667 30.72-1.706667 32.426666-22.186667 0-18.773333-6.826667-27.306667-27.306666-25.6-35.84 1.706667-71.68 0-109.226667 0v-107.52c35.84 0 69.973333-1.706667 104.106667 0 18.773333 1.706667 29.013333 1.706667 30.72-20.48 1.706667-22.186667-11.946667-25.6-30.72-25.6-34.133333 1.706667-69.973333 0-105.813334 0v-128h110.933334c29.013333 0 39.253333-11.946667 37.546666-44.373333H501.76c15.36-34.133333 27.306667-64.853333 40.96-97.28-49.493333-10.24-58.026667-5.12-78.506667 32.426666-23.893333 44.373333-49.493333 88.746667-73.386666 133.12-1.706667 5.12-6.826667 8.533333-15.36 17.066667v-88.746667H189.44v512h128c39.253333 0 59.733333-20.48 59.733333-61.44 0-66.56 3.413333-134.826667-1.706666-201.386666-3.413333-52.906667 25.6-83.626667 58.026666-122.88v384c0 20.48 8.533333 32.426667 30.72 32.426666 110.933333 0 220.16 0 331.093334-1.706666 25.6 0 35.84-13.653333 34.133333-44.373334-44.373333 1.706667-93.866667 1.706667-143.36 1.706667z m-366.933333-34.133333h-68.266667V351.573333h68.266667v407.893334z m305.493333 34.133333h-131.413333v-112.64c0-3.413333 8.533333-10.24 13.653333-11.946667 37.546667-1.706667 75.093333 0 116.053333 0 1.706667 44.373333 1.706667 83.626667 1.706667 124.586667z m1.706667-170.666667h-133.12V529.066667c0-3.413333 8.533333-11.946667 13.653333-11.946667 34.133333-1.706667 68.266667-1.706667 102.4 0 5.12 0 15.36 8.533333 15.36 13.653333 3.413333 29.013333 1.706667 59.733333 1.706667 92.16z m0-151.893333H494.933333v-124.586667h117.76c5.12 0 11.946667 10.24 11.946667 15.36 3.413333 35.84 1.706667 69.973333 1.706667 109.226667z" fill="#FFFFFF" p-id="24501"></path><path d="M655.36 293.546667c8.533333-5.12 13.653333-6.826667 17.066667-10.24 27.306667-18.773333 27.306667-22.186667 8.533333-47.786667-11.946667-17.066667-25.6-34.133333-37.546667-51.2-10.24 6.826667-20.48 11.946667-27.306666 20.48-5.12 6.826667-10.24 20.48-6.826667 25.6 13.653333 22.186667 30.72 40.96 46.08 63.146667z" fill="#FFFFFF" p-id="24502"></path></svg>