<?xml version="1.0" standalone="no"?><!DOCTYPE svg PUBLIC "-//W3C//DTD SVG 1.1//EN" "http://www.w3.org/Graphics/SVG/1.1/DTD/svg11.dtd"><svg t="1578495681188" class="icon" viewBox="0 0 1024 1024" version="1.1" xmlns="http://www.w3.org/2000/svg" p-id="6674" xmlns:xlink="http://www.w3.org/1999/xlink" width="200" height="200"><defs><style type="text/css"></style></defs><path d="M199.729951 868.793236l672.372553 2.314406s99.719285-76.238049 45.742829-181.26465c-53.972293-105.026602-243.266602-39.890211-243.266601-39.890212-32.722211 18.977301-26.71974-103.344911-97.463155-166.01704-23.572813-20.87961-52.224-38.628943-87.897496-48.065561-69.652813-18.440325-156.830179 28.850992-183.974504 89.237854-7.863154 17.495415-27.63135 44.477398-33.637984 70.743414-6.006634 26.274341 1.714992 51.870179-10.568845 66.626602-13.778211 16.554667-34.120846-2.909659-66.697366 4.270829-96.285138 21.233431-108.190179 145.82426-35.565268 194.539187 2.46426 1.64839 37.28026 7.505171 40.955837 7.505171z m-63.37561 81.299772c-82.869073-100.834862-181.830764-217.708228-33.633821-322.872195 22.436423-15.921951 95.594146-7.655024 107.053789-47.074862 11.825951-40.689431 8.366829-34.853463 28.347317-70.897431 36.955577-66.643252 115.449756-142.906276 195.330081-145.882536 52.003382-1.914797 124.71987 36.164683 161.875252 69.090862 85.986862 76.163122 103.806959 174.075837 143.576456 151.006699 0 0 204.962341-50.101073 270.56078 77.545105 65.598439 127.654504-126.106016 295.444813-126.106016 295.444813l-747.003838-6.360455z" fill="#009944" p-id="6675"></path><path d="M379.329561 396.516943l53.05652-20.946211V191.925073l104.897561-56.757073 97.692098 59.978927v313.468878l52.885853 41.784195V174.200715l-138.102634-101.484227-164.002341 93.433756zM720.19252 608.068683l37.321887-0.258081V315.029854l73.798764-45.426472L900.037724 317.606504v292.789073l37.20117-8.445918V300.843707l-97.155122-81.229008-115.370666 74.785301z" fill="#009944" p-id="6676"></path><path d="M458.110959 248.30335h56.278374v63.259057h-56.278374zM548.951415 248.30335h56.282536v63.259057h-56.282536zM796.555447 378.792585h56.278374v31.63161h-56.278374zM796.555447 461.249561h56.278374v31.63161h-56.278374z" fill="#009944" p-id="6677"></path></svg>