<?xml version="1.0" standalone="no"?><!DOCTYPE svg PUBLIC "-//W3C//DTD SVG 1.1//EN" "http://www.w3.org/Graphics/SVG/1.1/DTD/svg11.dtd"><svg t="1579348767764" class="icon" viewBox="0 0 1024 1024" version="1.1" xmlns="http://www.w3.org/2000/svg" p-id="8253" xmlns:xlink="http://www.w3.org/1999/xlink" width="200" height="200"><defs><style type="text/css"></style></defs><path d="M512 128c-211.7 0-384 172.3-384 384s172.3 384 384 384 384-172.3 384-384-172.3-384-384-384z m0 717.4c-183.8 0-333.4-149.6-333.4-333.4S328.2 178.6 512 178.6 845.4 328.2 845.4 512 695.8 845.4 512 845.4z" fill="#1296db" p-id="8254"></path><path d="M702.9 334.9c-24.9-14.2-54.6-17.1-81.6-8.1-26.4 8.8-48 28.3-59.5 53.6L418 618.9l-1.6 3c-5.6 12.9-16.5 22.9-29.8 27.4-13.5 4.5-27.9 3.1-40.5-4.1-19.8-11.3-29.4-35.4-22.7-57.2 7.1-23 28.3-26.5 75.1-29l3.5-0.2c14-0.8 24.7-12.7 23.9-26.6-0.8-14-12.7-24.6-26.6-23.9l-3.4 0.2c-45.7 2.4-102.6 5.5-120.8 64.7-13.6 44.3 5.7 93.1 46 116 15.4 8.8 32.7 13.3 50 13.3 10.7 0 21.3-1.7 31.6-5.1 26.4-8.8 48-28.3 59.5-53.6L606 405.1l1.6-3c5.6-12.9 16.5-22.9 29.8-27.4 13.5-4.5 27.9-3.1 40.5 4.1 19.8 11.3 29.4 35.4 22.7 57.2-7.1 23.2-28.5 26.6-75.7 29.1l-2.8 0.1c-14 0.7-24.7 12.6-24 26.6 0.7 14 12.6 24.8 26.6 24l2.8-0.1c46-2.4 103.2-5.3 121.5-64.7 13.5-44.4-5.8-93.2-46.1-116.1z" fill="#1296db" p-id="8255"></path></svg>