<?xml version="1.0" standalone="no"?><!DOCTYPE svg PUBLIC "-//W3C//DTD SVG 1.1//EN" "http://www.w3.org/Graphics/SVG/1.1/DTD/svg11.dtd"><svg t="1579014568534" class="icon" viewBox="0 0 1024 1024" version="1.1" xmlns="http://www.w3.org/2000/svg" p-id="5600" xmlns:xlink="http://www.w3.org/1999/xlink" width="200" height="200"><defs><style type="text/css"></style></defs><path d="M537 937.4c-94.1 0-185.9-31.3-261.5-90.5l-212.2 6.5 75.9-141.1c9.6-17.9 31.8-24.6 49.7-15 17.9 9.6 24.5 31.9 15 49.7l-15.6 29 112.6-3.4 10.7 9c82.1 68.6 189.2 96.2 293.8 75.6C795.8 819.7 920.2 634.3 882.7 444c-37.5-190.4-222.9-314.9-413.2-277.2-170.3 33.5-289.6 183.6-283.7 356.7 0.7 20.3-15.2 37.3-35.4 37.9-20.5 1.6-37.3-15.2-38-35.4-7.1-209.4 137.1-390.8 342.9-431.3 230.1-45.4 454.1 105 499.5 335.1 45.3 230.1-105 454.2-335.1 499.5-27.6 5.4-55.2 8.1-82.7 8.1z" fill="#009FE8" p-id="5601"></path><path d="M570.9 290.9m-53.9 0a53.9 53.9 0 1 0 107.8 0 53.9 53.9 0 1 0-107.8 0Z" fill="#009FE8" p-id="5602"></path><path d="M690.4 454.9c0-5.7-4.6-10.2-10.2-10.2-13 1-39.5 7.1-54.9 12.1-6.9 2.2-14.2-1.4-16.7-8.2l-27.4-74.2-0.2 0.2c-3.7-11.3-13.3-20.3-25.8-22.1l-6.9-1c-5.1-0.7-9.9 0.1-14.5 1.7v-0.3l-71.1 29.9c-13.7 5.4-24.7 16-30.8 29.3l-38.5 84.3v1.8c0 0.4-0.4 0.6-0.4 1 0 5.7 4.6 10.2 10.2 10.2 2.9 0 5.4-1.2 7.3-3.1 13.4-13.1 38.5-48.1 50.3-64.9 4.1-5.9 10.2-10 17.1-11.7l28.1-6.8-14.4 103.7-52.6 95.8c-3.8 6.9-8.7 13.2-14.4 18.5L368.1 694s0.1 0 0.1-0.1c-5.1 5-8.4 12-8.4 19.8 0 15.3 12.4 27.7 27.7 27.7 6.9 0 13.1-2.8 18-7-0.2 0.3-0.5 0.8-0.8 1l2.2-2c0.1-0.1 0.2-0.2 0.3-0.2l47.3-42.8c19.9-17.7 35.8-39.4 46.7-63.6l14.4-32.1L556 637c9.4 9.8 13.7 23.4 11.8 36.8l-10.4 66.8c0.1 0.1 0.2 0.2 0.4 0.3-0.1 0.9-0.5 1.7-0.5 2.7 0 15.3 12.4 27.7 27.7 27.7 13.3 0 23.9-9.6 26.6-22.2 0.4-0.4 0.7-0.8 0.7-0.8l10.4-94.2c2-15.8-3.2-31.6-14.1-43.2l-49.7-53.4 11.9-85.9 20 25c7.1 8.9 19.6 11.2 29.4 5.4l64-37.7c-1.3 0.6-2.7 0.9-4.2 0.9 5.8 0 10.4-4.6 10.4-10.3z" fill="#009FE8" p-id="5603"></path></svg>