<?xml version="1.0" standalone="no"?><!DOCTYPE svg PUBLIC "-//W3C//DTD SVG 1.1//EN" "http://www.w3.org/Graphics/SVG/1.1/DTD/svg11.dtd"><svg t="1579014495086" class="icon" viewBox="0 0 1104 1024" version="1.1" xmlns="http://www.w3.org/2000/svg" p-id="3183" xmlns:xlink="http://www.w3.org/1999/xlink" width="215.625" height="200"><defs><style type="text/css"></style></defs><path d="M193.157623 1024v-240.78553C71.44186 698.542636 0 574.180879 0 444.527132 0 198.449612 243.431525 0 542.428941 0S1084.857881 198.449612 1084.857881 444.527132c0 243.431525-243.431525 444.527132-542.42894 444.527132-31.751938 0-60.857881-2.645995-92.60982-7.937985l-256.661498 142.883721zM542.428941 52.919897C272.537468 52.919897 52.919897 227.555556 52.919897 444.527132c0 116.423773 66.149871 227.555556 182.573643 301.643411l13.229974 7.937984v179.927649l195.803618-108.485788 7.937984 2.645994c29.105943 5.29199 60.857881 7.937984 92.609819 7.937985 269.891473 0 489.509044-174.635659 489.509044-391.607235C1031.937984 227.555556 812.320413 52.919897 542.428941 52.919897z" fill="#BBA37F" p-id="3184"></path></svg>