<?xml version="1.0" standalone="no"?><!DOCTYPE svg PUBLIC "-//W3C//DTD SVG 1.1//EN" "http://www.w3.org/Graphics/SVG/1.1/DTD/svg11.dtd"><svg t="1579014551689" class="icon" viewBox="0 0 1024 1024" version="1.1" xmlns="http://www.w3.org/2000/svg" p-id="5463" xmlns:xlink="http://www.w3.org/1999/xlink" width="200" height="200"><defs><style type="text/css"></style></defs><path d="M1007.20974264 932.07926909c-29.26239387-150.7962906-119.3005289-279.10063301-249.85582469-353.39967998-13.52330582-6.75286012-21.38405707-12.9429819-45.01906752-22.49194818-81.61464543-33.21914787-163.21170531-42.78569971-238.6010578-42.78569971-225.09533757 18.02521257-411.92446775 189.09766912-456.94353527 418.67732787-4.50190674 18.007627 0 36.03283958 11.25476687 51.77192765 11.25476687 13.52330582 29.26239387 22.50953377 47.27002089 22.50953376h871.11895638c18.007627 0 36.01525401-9.00381351 47.27002089-22.50953376 13.50572025-15.73908806 18.007627-33.74671506 13.50572025-51.77192765z m-63.44874826 24.25050552c-3.11264647 0-6.71768898-1.05513439-10.49858724-2.54990812-1.16064783 0.17585573-2.37405239 0.35171146-3.79848382 0.35171147-2.23336781 0-4.69534805-0.49239605-7.28042733-1.30133243a23.33605569 23.33605569 0 0 1-8.10694927 1.30133243c-3.14781762 0-6.7704457-1.05513439-10.5865151-2.5674937a18.93966238 18.93966238 0 0 1-10.30514592 2.5674937c-1.05513439 0-2.18061109-0.21102687-3.30608776-0.38688262-3.76331267 2.4268091-9.42586726 2.53232255-15.33461988 1.442017l0.49239605 0.1934413-1.65304388-0.14068457c-0.80893638-0.07034229-1.63545831-0.40446819-2.44439468-0.52756721-3.32367334 1.58270159-7.68489552 1.63545831-11.85267638 1.63545831h-1.1078911c-3.8160694 0-7.94867911-1.33650357-12.0988744-3.05988973-1.63545831 0.12309901-3.20057432 0.36929704-4.92396051 0.36929702-1.12547669 0-2.12785436-0.21102687-3.25333106-0.24619802a95.91171649 95.91171649 0 0 1-32.9201931 1.79372849c-2.12785436 0.15827015-4.16778087 0.65066621-6.33080638 0.6506662H797.76556527c-5.94392377 0-11.71199178-0.77376522-17.33937522-1.95199864a97.81095842 97.81095842 0 0 1-28.48862867-1.33650356c-1.10789112 0.0527567-2.14543995 0.35171146-3.25333104 0.35171145h-2.93679074c-3.60504252 0-7.03422929-0.65066621-10.55134396-1.09030553-5.97909492 0.91444981-11.99336095 1.65304389-18.02521256 1.82889961-0.38688261 0.01758556-0.75617964-0.08792786-1.14306227-0.08792785-4.88878935 0.87927866-9.86550659 1.54753046-14.9829084 1.54753043h-2.91920515c-1.9695842 0-3.86882612-0.40446819-5.80323919-0.54515275-4.09743857 0.49239605-8.26521942 0.75617964-12.52092814 0.54515275-9.02139906-0.43963933-18.74622108-1.19581898-27.73244901-3.76331267-5.57462672 2.37405239-10.67444296 3.76331267-14.91256612 3.76331267-5.85599589 0-9.46103841-1.40684587-11.36028032-3.78089823-4.29087987 1.58270159-8.37073287 2.67300713-11.72957735 2.67300712-3.58745693 0-6.10219392-0.66825178-8.14212043-1.60028716-4.27329431 1.56511602-8.31797615 2.6905927-11.64164948 2.69059271-5.02947395 0-8.2124627-1.12547669-10.26997478-2.9016196a32.58606723 32.58606723 0 0 1-9.51379512 1.81131405 20.5751207 20.5751207 0 0 1-7.54421092-1.23099012 34.52048028 34.52048028 0 0 1-11.14925345 2.33888123c-5.69772573 0-9.32035381-1.30133242-11.25476686-3.55228578a96.17550009 96.17550009 0 0 1-20.15306695 2.0926832c-9.88309218 0-18.83414895-1.40684587-26.99385493-3.85124053-8.45866073 2.6905927-17.58557325 4.57224905-27.96106146 4.57224904a93.27388051 93.27388051 0 0 1-28.48862867-4.23812314 92.50011529 92.50011529 0 0 1-27.92589031 4.23812314 93.04526804 93.04526804 0 0 1-25.32322549-3.4819435c-4.90637493 1.93441306-9.46103841 3.13023204-13.24193664 3.13023204-3.49952907 0-6.11977948-0.54515277-8.07177813-1.49477374-3.02471859 0.87927866-5.90875261 1.49477372-8.42348959 1.49477374-3.62262808 0-6.13736506-0.66825178-8.17729154-1.63545831-1.33650357 0.22861245-2.72576385 0.5275672-3.92158286 0.52756718-2.3564668 0-4.15019529-0.35171146-5.83841031-0.75617963l-0.29895475 0.01758557c-3.25333106 0-6.3835631-0.19344129-9.4610384-0.4572249-5.2580864 2.14543995-10.07653347 3.39401563-14.08604418 3.39401562-4.37880775 0-7.21008502-0.94962097-9.30276823-2.32129566-4.02709627 0.5275672-8.19487714 0.86169308-12.57368489 0.86169308-1.75855733 0-3.34125891-0.24619803-5.02947395-0.36929702a32.67399509 32.67399509 0 0 1-9.37311053 1.8288996c-5.06464509 0-8.28280501-1.14306227-10.34031708-2.95437629-5.53945557 2.37405239-10.74478525 4.04468184-14.94773724 4.04468185-4.78327593 0-7.84316567-1.07271996-9.91826332-2.69059272-3.16540318 0.94962097-6.17253621 1.60028716-8.75761548 1.60028716-5.01188838 0-8.19487714-1.12547669-10.2523892-2.90161959a32.02332888 32.02332888 0 0 1-9.5313807 1.81131406c-4.4667356 0-7.33318404-0.9847921-9.44345283-2.40922354a88.59611801 88.59611801 0 0 1-41.22058369 0.66825179c-5.73289688 2.46198025-10.99098328 3.93916842-15.29944874 3.9391684-5.01188838 0-8.19487714-1.12547669-10.2523892-2.90161958a32.60365281 32.60365281 0 0 1-9.53138069 1.81131405 20.5751207 20.5751207 0 0 1-7.66730994-1.30133243 30.2999427 30.2999427 0 0 1-7.64972437 1.26616128c-3.20057432 0-5.59221229-0.49239605-7.56179649-1.24857569a29.77237551 29.77237551 0 0 1-7.8255801 1.24857569 18.64070765 18.64070765 0 0 1-8.08936368-1.5827016c-4.29087987 1.56511602-8.33556171 2.67300713-11.69440622 2.67300714-12.92539634 0-15.01807956-6.70010341-10.8502987-16.19631296a10.35790263 10.35790263 0 0 1-0.33412588-6.27804965c-1.26616127-3.83365497 0.4572249-9.25001153 4.18536643-15.47530445-3.60504252-4.6777625-0.36929704-13.18917993 6.73527456-22.94917311a18.11314045 18.11314045 0 0 1 1.79372848-8.63451646c0.15827015-4.9239605 3.56987138-11.46579375 8.89830005-18.64070763a12.53851374 12.53851374 0 0 1 0.42205375-6.19012179c0.07034229-0.35171146-0.07034229-0.50998163 0.08792787-0.93203537a56.27383438 56.27383438 0 0 1 3.64021367-8.24763386c0.65066621-1.12547669 1.67062946-2.1102688 2.60266483-3.14781761 0.75617964-1.56511602 1.74097175-3.20057432 2.79610617-4.87120379-6.78803127-0.49239605-1.21340456-8.56417417 6.40114864-15.08842185 2.97196187-9.79516429 7.10457159-19.16827484 13.18917994-27.31039526a85.64174173 85.64174173 0 0 1 9.95343445-17.95487027c4.20295201-9.19725481 9.74240758-17.76142898 17.00524933-24.88358615 1.82889963-3.39401563 3.79848382-6.73527455 5.99668049-9.90067774 4.48432117-8.30039057 10.32273149-15.79184476 17.49764537-22.12265114 0.80893638-0.87927866 1.51235931-1.81131405 2.35646682-2.62025042 0.66825178-0.77376522 1.12547669-1.7058006 1.82889962-2.44439469a78.81853929 78.81853929 0 0 1 21.6302551-24.90117171 76.34007256 76.34007256 0 0 1 9.30276826-9.32035381 75.84657741 75.84657741 0 0 1 18.90449122-15.77425921c4.18536642-4.78327593 8.75761547-9.26759709 14.15638646-12.96056749a76.14553216 76.14553216 0 0 1 26.80041363-18.71104994 76.25104561 76.25104561 0 0 1 29.86030337-19.22103155c4.37880775-2.90161959 9.07415579-5.45152771 14.2091432-7.49145419a77.11273868 77.11273868 0 0 1 20.1706525-10.09411906c5.06464509-2.97196187 10.48100166-5.57462672 16.49526772-7.43869748a80.94639365 80.94639365 0 0 1 33.46534588-12.48575701 84.30523815 84.30523815 0 0 1 22.36884918-6.15495064 89.8622793 89.8622793 0 0 1 29.35032175-5.75048244 91.0405127 91.0405127 0 0 1 28.89309684-5.18774412 98.23301218 98.23301218 0 0 1 28.9810247-1.33650357 99.71020031 99.71020031 0 0 1 14.43775565-1.12547668c3.76331267 0 7.38594077 0.22861245 10.90305541 0.59790948 0.22861245 0 0.40446819-0.0527567 0.63308063-0.05275671 4.18536642 0 8.15970599 0.31654032 12.02853212 0.77376522 1.49477372-0.07034229 2.93679075-0.22861245 4.4667356-0.22861245a95.61715814 95.61715814 0 0 1 23.56466816 2.93679072 94.78623979 94.78623979 0 0 1 19.16827482 2.60266485 92.25391726 92.25391726 0 0 1 28.94585358 4.71293363c9.97102003 0.70342293 18.6758788 3.23574548 26.73007132 6.50666211 7.98385026 1.30133242 15.01807956 3.85124055 21.61266952 6.92871585a79.34610649 79.34610649 0 0 1 33.14880558 12.57368487c9.25001153 2.3564668 18.11314045 6.26046408 26.30801758 11.51855049a94.61038407 94.61038407 0 0 1 18.34175289 8.61693089l-2.21578223-1.72338617 1.74097175 1.10789112c4.13260972 2.58507926 7.7552378 5.69772573 11.36028033 8.82795775 0.47481047 0.24619803 0.91444981 0.56273834 1.37167471 0.80893638 15.03566513 4.66017691 26.92351265 13.18917993 36.03283958 23.88120846 4.83603264 3.2181599 9.47862398 6.78803127 13.7343327 11.00856886l0.38688261 0.49239606c0.35171146 0.24619803 0.63308063 0.56273834 0.98479212 0.80893635 7.13974274 3.62262808 11.65923506 7.57938207 22.80848848 16.28424084 5.13498739 4.0095107 9.39069612 9.35552496 12.97815307 15.33461987 1.23099013 1.09030554 2.28612451 2.33888124 3.44677234 3.48194349 8.37073287 5.82082474 15.08842185 13.22435108 20.50477841 21.47198494a91.86153915 91.86153915 0 0 1 17.88452799 21.84128198c9.88309218 9.49620955 17.16351949 21.38405707 21.80611085 34.46772356 4.90637493 5.76806802 8.88071449 12.25714455 12.06370323 19.13310369 3.14781762 3.8160694 6.13736506 7.7552378 8.59934532 11.97577539 4.6777625 8.00143583 7.45628305 16.56561001 9.26759712 25.27046874l0.03517112 0.05275673c3.20057432 4.74810478 6.68251784 10.67444296 8.86312892 16.86456475 5.71531131 8.58175975 9.67206529 17.90211356 10.3930738 27.62693557 6.26046408 9.86550659 9.79516429 19.01000468 9.02139907 25.63976579 0.7210085 2.60266484 1.21340456 5.09981624 1.16064783 7.29801291 2.49715139 5.68014017 3.76331267 10.8502987 3.21815991 14.96532283 7.63213878 15.40496216 6.94630144 27.57417885-10.69202852 27.57417885z" fill="#9599a4" p-id="5464"></path><path d="M972.31996532 939.39486758C946.4340015 802.10429723 863.71146494 685.61746003 739.90902928 611.33599864c-47.27002089-29.82513223-144.06101605-61.33847948-244.7911796-61.33847948h-16.88215031C268.89703544 565.19145444 93.88541047 725.57188246 52.24277303 939.39486758c-1.12547669 5.62738344-0.56273834 15.21152085 5.0646451 20.83890429 0.56273834 0.56273834 0.56273834 1.10789112 1.12547667 1.7058006 3.93916842 5.04705953 10.69202854 7.86075124 18.00762701 7.86075125H948.12221653c7.31559847 0 14.0684586-2.81369172 18.00762702-7.86075125 5.64496901-7.31559847 7.31559847-14.63119694 6.19012177-22.54470489z m-28.55897094 16.93490703c-3.11264647 0-6.71768898-1.05513439-10.49858724-2.54990812-1.16064783 0.17585573-2.37405239 0.35171146-3.79848382 0.35171147-2.23336781 0-4.69534805-0.49239605-7.28042733-1.30133243a23.33605569 23.33605569 0 0 1-8.10694927 1.30133243c-3.14781762 0-6.7704457-1.05513439-10.5865151-2.5674937a18.93966238 18.93966238 0 0 1-10.30514592 2.5674937c-1.05513439 0-2.18061109-0.21102687-3.30608776-0.38688262-3.76331267 2.4268091-9.42586726 2.53232255-15.33461988 1.442017l0.49239605 0.1934413-1.65304388-0.14068457c-0.80893638-0.07034229-1.63545831-0.40446819-2.44439468-0.52756721-3.32367334 1.58270159-7.68489552 1.63545831-11.85267638 1.63545831h-1.1078911c-3.8160694 0-7.94867911-1.33650357-12.0988744-3.05988973-1.63545831 0.12309901-3.20057432 0.36929704-4.92396051 0.36929702-1.12547669 0-2.12785436-0.21102687-3.25333106-0.24619802a95.91171649 95.91171649 0 0 1-32.9201931 1.79372849c-2.12785436 0.15827015-4.16778087 0.65066621-6.33080638 0.6506662H797.76556527c-5.94392377 0-11.71199178-0.77376522-17.33937522-1.95199864a97.81095842 97.81095842 0 0 1-28.48862867-1.33650356c-1.10789112 0.0527567-2.14543995 0.35171146-3.25333104 0.35171145h-2.93679074c-3.60504252 0-7.03422929-0.65066621-10.55134396-1.09030553-5.97909492 0.91444981-11.99336095 1.65304389-18.02521256 1.82889961-0.38688261 0.01758556-0.75617964-0.08792786-1.14306227-0.08792785-4.88878935 0.87927866-9.86550659 1.54753046-14.9829084 1.54753043h-2.91920515c-1.9695842 0-3.86882612-0.40446819-5.80323919-0.54515275-4.09743857 0.49239605-8.26521942 0.75617964-12.52092814 0.54515275-9.02139906-0.43963933-18.74622108-1.19581898-27.73244901-3.76331267-5.57462672 2.37405239-10.67444296 3.76331267-14.91256612 3.76331267-5.85599589 0-9.46103841-1.40684587-11.36028032-3.78089823-4.29087987 1.58270159-8.37073287 2.67300713-11.72957735 2.67300712-3.58745693 0-6.10219392-0.66825178-8.14212043-1.60028716-4.27329431 1.56511602-8.31797615 2.6905927-11.64164948 2.69059271-5.02947395 0-8.2124627-1.12547669-10.26997478-2.9016196a32.58606723 32.58606723 0 0 1-9.51379512 1.81131405 20.5751207 20.5751207 0 0 1-7.54421092-1.23099012 34.52048028 34.52048028 0 0 1-11.14925345 2.33888123c-5.69772573 0-9.32035381-1.30133242-11.25476686-3.55228578a96.17550009 96.17550009 0 0 1-20.15306695 2.0926832c-9.88309218 0-18.83414895-1.40684587-26.99385493-3.85124053-8.45866073 2.6905927-17.58557325 4.57224905-27.96106146 4.57224904a93.27388051 93.27388051 0 0 1-28.48862867-4.23812314 92.50011529 92.50011529 0 0 1-27.92589031 4.23812314 93.04526804 93.04526804 0 0 1-25.32322549-3.4819435c-4.90637493 1.93441306-9.46103841 3.13023204-13.24193664 3.13023204-3.49952907 0-6.11977948-0.54515277-8.07177813-1.49477374-3.02471859 0.87927866-5.90875261 1.49477372-8.42348959 1.49477374-3.62262808 0-6.13736506-0.66825178-8.17729154-1.63545831-1.33650357 0.22861245-2.72576385 0.5275672-3.92158286 0.52756718-2.3564668 0-4.15019529-0.35171146-5.83841031-0.75617963l-0.29895475 0.01758557c-3.25333106 0-6.3835631-0.19344129-9.4610384-0.4572249-5.2580864 2.14543995-10.07653347 3.39401563-14.08604418 3.39401562-4.37880775 0-7.21008502-0.94962097-9.30276823-2.32129566-4.02709627 0.5275672-8.19487714 0.86169308-12.57368489 0.86169308-1.75855733 0-3.34125891-0.24619803-5.02947395-0.36929702a32.67399509 32.67399509 0 0 1-9.37311053 1.8288996c-5.06464509 0-8.28280501-1.14306227-10.34031708-2.95437629-5.53945557 2.37405239-10.74478525 4.04468184-14.94773724 4.04468185-4.78327593 0-7.84316567-1.07271996-9.91826332-2.69059272-3.16540318 0.94962097-6.17253621 1.60028716-8.75761548 1.60028716-5.01188838 0-8.19487714-1.12547669-10.2523892-2.90161959a32.02332888 32.02332888 0 0 1-9.5313807 1.81131406c-4.4667356 0-7.33318404-0.9847921-9.44345283-2.40922354a88.59611801 88.59611801 0 0 1-41.22058369 0.66825179c-5.73289688 2.46198025-10.99098328 3.93916842-15.29944874 3.9391684-5.01188838 0-8.19487714-1.12547669-10.2523892-2.90161958a32.60365281 32.60365281 0 0 1-9.53138069 1.81131405 20.5751207 20.5751207 0 0 1-7.66730994-1.30133243 30.2999427 30.2999427 0 0 1-7.64972437 1.26616128c-3.20057432 0-5.59221229-0.49239605-7.56179649-1.24857569a29.77237551 29.77237551 0 0 1-7.8255801 1.24857569 18.64070765 18.64070765 0 0 1-8.08936368-1.5827016c-4.29087987 1.56511602-8.33556171 2.67300713-11.69440622 2.67300714-12.92539634 0-15.01807956-6.70010341-10.8502987-16.19631296a10.35790263 10.35790263 0 0 1-0.33412588-6.27804965c-1.26616127-3.83365497 0.4572249-9.25001153 4.18536643-15.47530445-3.60504252-4.6777625-0.36929704-13.18917993 6.73527456-22.94917311a18.11314045 18.11314045 0 0 1 1.79372848-8.63451646c0.15827015-4.9239605 3.56987138-11.46579375 8.89830005-18.64070763a12.53851374 12.53851374 0 0 1 0.42205375-6.19012179c0.07034229-0.35171146-0.07034229-0.50998163 0.08792787-0.93203537a56.27383438 56.27383438 0 0 1 3.64021367-8.24763386c0.65066621-1.12547669 1.67062946-2.1102688 2.60266483-3.14781761 0.75617964-1.56511602 1.74097175-3.20057432 2.79610617-4.87120379-6.78803127-0.49239605-1.21340456-8.56417417 6.40114864-15.08842185 2.97196187-9.79516429 7.10457159-19.16827484 13.18917994-27.31039526a85.64174173 85.64174173 0 0 1 9.95343445-17.95487027c4.20295201-9.19725481 9.74240758-17.76142898 17.00524933-24.88358615 1.82889963-3.39401563 3.79848382-6.73527455 5.99668049-9.90067774 4.48432117-8.30039057 10.32273149-15.79184476 17.49764537-22.12265114 0.80893638-0.87927866 1.51235931-1.81131405 2.35646682-2.62025042 0.66825178-0.77376522 1.12547669-1.7058006 1.82889962-2.44439469a78.81853929 78.81853929 0 0 1 21.6302551-24.90117171 76.34007256 76.34007256 0 0 1 9.30276826-9.32035381 75.84657741 75.84657741 0 0 1 18.90449122-15.77425921c4.18536642-4.78327593 8.75761547-9.26759709 14.15638646-12.96056749a76.14553216 76.14553216 0 0 1 26.80041363-18.71104994 76.25104561 76.25104561 0 0 1 29.86030337-19.22103155c4.37880775-2.90161959 9.07415579-5.45152771 14.2091432-7.49145419a77.11273868 77.11273868 0 0 1 20.1706525-10.09411906c5.06464509-2.97196187 10.48100166-5.57462672 16.49526772-7.43869748a80.94639365 80.94639365 0 0 1 33.46534588-12.48575701 84.30523815 84.30523815 0 0 1 22.36884918-6.15495064 89.8622793 89.8622793 0 0 1 29.35032175-5.75048244 91.0405127 91.0405127 0 0 1 28.89309684-5.18774412 98.23301218 98.23301218 0 0 1 28.9810247-1.33650357 99.71020031 99.71020031 0 0 1 14.43775565-1.12547668c3.76331267 0 7.38594077 0.22861245 10.90305541 0.59790948 0.22861245 0 0.40446819-0.0527567 0.63308063-0.05275671 4.18536642 0 8.15970599 0.31654032 12.02853212 0.77376522 1.49477372-0.07034229 2.93679075-0.22861245 4.4667356-0.22861245a95.61715814 95.61715814 0 0 1 23.56466816 2.93679072 94.78623979 94.78623979 0 0 1 19.16827482 2.60266485 92.25391726 92.25391726 0 0 1 28.94585358 4.71293363c9.97102003 0.70342293 18.6758788 3.23574548 26.73007132 6.50666211 7.98385026 1.30133242 15.01807956 3.85124055 21.61266952 6.92871585a79.34610649 79.34610649 0 0 1 33.14880558 12.57368487c9.25001153 2.3564668 18.11314045 6.26046408 26.30801758 11.51855049a94.61038407 94.61038407 0 0 1 18.34175289 8.61693089l-2.21578223-1.72338617 1.74097175 1.10789112c4.13260972 2.58507926 7.7552378 5.69772573 11.36028033 8.82795775 0.47481047 0.24619803 0.91444981 0.56273834 1.37167471 0.80893638 15.03566513 4.66017691 26.92351265 13.18917993 36.03283958 23.88120846 4.83603264 3.2181599 9.47862398 6.78803127 13.7343327 11.00856886l0.38688261 0.49239606c0.35171146 0.24619803 0.63308063 0.56273834 0.98479212 0.80893635 7.13974274 3.62262808 11.65923506 7.57938207 22.80848848 16.28424084 5.13498739 4.0095107 9.39069612 9.35552496 12.97815307 15.33461987 1.23099013 1.09030554 2.28612451 2.33888124 3.44677234 3.48194349 8.37073287 5.82082474 15.08842185 13.22435108 20.50477841 21.47198494a91.86153915 91.86153915 0 0 1 17.88452799 21.84128198c9.88309218 9.49620955 17.16351949 21.38405707 21.80611085 34.46772356 4.90637493 5.76806802 8.88071449 12.25714455 12.06370323 19.13310369 3.14781762 3.8160694 6.13736506 7.7552378 8.59934532 11.97577539 4.6777625 8.00143583 7.45628305 16.56561001 9.26759712 25.27046874l0.03517112 0.05275673c3.20057432 4.74810478 6.68251784 10.67444296 8.86312892 16.86456475 5.71531131 8.58175975 9.67206529 17.90211356 10.3930738 27.62693557 6.26046408 9.86550659 9.79516429 19.01000468 9.02139907 25.63976579 0.7210085 2.60266484 1.21340456 5.09981624 1.16064783 7.29801291 2.49715139 5.68014017 3.76331267 10.8502987 3.21815991 14.96532283 7.63213878 15.40496216 6.94630144 27.57417885-10.69202852 27.57417885z" fill="#9599a4" p-id="5465"></path><path d="M512 15.95883077c-141.81006267 0-258.8596382 117.04957554-258.8596382 258.8596382S370.18993733 533.67810719 512 533.67810719s258.87722377-117.04957554 258.87722377-258.85963822S653.81006267 15.95883077 512 15.95883077z m205.80396371 275.60110394a100.90601929 100.90601929 0 0 1-4.37880774 27.69727786 95.96447321 95.96447321 0 0 1-7.9486791 28.34794408 89.8622793 89.8622793 0 0 1-8.79278663 20.71580528c-4.9943028 12.30990128-12.36265799 23.56466815-22.65021833 32.26952691a74.56283057 74.56283057 0 0 1-14.93015171 16.74146573 77.20066655 77.20066655 0 0 1-31.16163578 26.9586838 76.04001872 76.04001872 0 0 1-26.04423399 16.0380428 79.41644877 79.41644877 0 0 1-32.92019311 13.92777401c-5.71531131 1.88165634-12.04611767 2.98954744-18.65829321 3.71055595a94.0124746 94.0124746 0 0 1-26.58938675 3.72814153c-1.30133242 0-2.49715139-0.19344129-3.76331267-0.24619803-1.68821503 0.08792786-3.30608777 0.24619803-5.02947394 0.24619803a106.04100668 106.04100668 0 0 1-8.66968763-0.42205375c-1.98716977 0.17585573-3.90399726 0.42205376-5.9790949 0.42205375a93.20353821 93.20353821 0 0 1-28.68206996-4.29087986c-20.8389043-0.59790949-37.70346904-7.21008502-50.57610867-17.58557326a76.74344166 76.74344166 0 0 1-35.32941665-23.24812783 85.76484072 85.76484072 0 0 1-33.9225708-31.58368956 82.52909526 82.52909526 0 0 1-11.71199178-17.16351949 86.50343481 86.50343481 0 0 1-15.58081791-26.73007133 94.25867261 94.25867261 0 0 1-6.75286011-20.68063414 94.22350146 94.22350146 0 0 1-9.58413743-32.09367118 100.94119045 100.94119045 0 0 1-3.20057433-43.11982562 100.00915506 100.00915506 0 0 1 5.22291525-36.91211823c1.07271996-4.22053757 2.44439469-8.33556171 4.02709628-12.36265798a94.08281688 94.08281688 0 0 1 9.05657022-27.01144051 84.53385061 84.53385061 0 0 1 20.57512071-33.07846329 80.89363694 80.89363694 0 0 1 22.15782229-28.48862865c4.55466347-5.34601427 9.79516429-10.12929019 15.80943036-14.17397203a76.67309937 76.67309937 0 0 1 30.40545613-19.78376992c3.20057432-1.67062946 6.26046408-3.49952907 9.79516431-4.78327592 11.1140823-7.64972436 24.9187573-12.52092816 41.15024139-13.78708942a88.2795777 88.2795777 0 0 1 20.48719284-5.13498739 94.61038407 94.61038407 0 0 1 56.18590652 0.22861243h0.03517115A86.1693089 86.1693089 0 0 1 581.63887006 80.21651542c18.79897779 3.25333106 33.6587872 11.94060423 44.66735604 23.74052388a75.19591121 75.19591121 0 0 1 30.40545615 22.31609246 80.91122252 80.91122252 0 0 1 24.67255926 32.19918461c1.60028716 2.63783598 3.16540318 5.29325754 4.57224906 8.01902142 12.08128882 12.73195504 19.62549974 29.15688045 22.52711932 46.5314268 1.68821503 4.13260972 2.97196187 8.42348958 4.06226742 12.78471175 5.69772573 14.45534121 7.43869749 30.40545615 5.89116703 45.98627404a102.29747777 102.29747777 0 0 1-0.59790948 17.97245587c-0.03517115 0.59790949 0.03517115 1.19581898-0.03517115 1.79372846z m268.60204579 645.03882671c-27.02902608-144.06101605-112.54766879-262.23606827-238.60105783-337.64300634-47.85034481-29.82513223-145.74923108-63.58943287-252.66951642-63.58943287-5.62738344 0-11.81750523 0-17.44488866 0.56273833C261.58143696 551.70331975 81.5051669 716.0053306 38.73705277 936.59876142c-2.2509534 11.25476687 0 24.74290156 9.00381351 33.76430063 6.75286012 9.00381351 18.007627 13.50572025 29.26239387 13.50572026H948.12221653c11.25476687 0 22.50953377-4.50190674 29.26239388-13.50572026 6.75286012-9.02139906 11.25476687-20.25858038 9.02139909-33.76430063z m-42.64501512 19.73101319c-2.14543995 0-4.48432117-0.42205376-6.96388702-1.16064783h-50.20681162c-3.42918678 0.94962097-7.66730994 0.80893638-12.0285321 0.01758556l0.49239606 0.1934413-1.6530439-0.14068457c-0.10551345 0-0.21102687-0.0527567-0.31654032-0.07034229h-3.07747532c-3.20057432 1.16064783-7.12215717 1.16064783-10.9030554 1.16064783H857.99615365c-1.9695842 0-4.11502414-0.63308063-6.22529295-1.16064783h-24.33843336a103.33282839 103.33282839 0 0 1-11.37786589 0.66825177c-3.88641168 0-7.59696764-0.26378359-11.20201016-0.65066621-2.14543995 0.15827015-4.20295201 0.65066621-6.38356309 0.65066621H797.76556527c-2.21578225 0-4.30846545-0.49239605-6.48907652-0.66825177H261.72212155c-2.53232255 0.65066621-4.9239605 1.03754882-7.05181489 1.03754882-2.95437631 0-5.31084312-0.36929704-7.21008502-1.03754882H157.2989876c-2.53232255 0.65066621-4.9239605 1.03754882-7.05181486 1.03754882-2.95437631 0-5.31084312-0.36929704-7.21008504-1.03754882h-56.06280752c-2.53232255 0.65066621-4.9239605 1.03754882-7.05181487 1.03754882-6.61217553 0-10.18204691-1.88165634-11.79991963-4.83603264-0.43963933-0.42205376-0.73859408-1.00237767-1.24857572-1.24857572-1.12547669-1.10789112-2.2509534-4.50190674-1.12547667-8.42348957 0.75617964-3.86882612 1.72338618-7.64972436 2.56749368-11.46579375a17.93728471 17.93728471 0 0 1 1.14306226-5.09981626c0.7210085-3.07747532 1.75855733-5.99668047 2.53232256-9.03898463-1.26616127-3.93916842 0.50998163-9.47862398 4.44915002-15.89735823 5.78565359-20.0475535 12.34507242-39.7082244 20.52236398-58.47203105a10.69202854 10.69202854 0 0 1 2.18061108-4.67776249 474.5994508 474.5994508 0 0 1 82.56426638-126.14131689c3.00713302-3.69297037 6.36597753-7.06940044 10.04136235-10.18204693a466.89696971 466.89696971 0 0 1 48.87030805-44.24530228c4.64259134-4.50190674 9.93584888-8.42348958 15.82701591-11.72957735 4.78327593-3.37643006 9.58413743-6.7704457 14.50809793-9.95343445a76.04001872 76.04001872 0 0 1 18.57036535-11.28993804 446.49770476 446.49770476 0 0 1 58.75340023-28.98102471 81.80808676 81.80808676 0 0 1 27.83796243-10.09411904c2.58507926-0.84410753 5.09981624-1.8464852 7.7024811-2.63783599a434.87364083 434.87364083 0 0 1 94.97968112-18.23623945c5.06464509 0.54515277 10.69202854 0 16.31941196 0 32.58606723 0 64.6797384 3.41160121 94.75106866 8.96864234 1.54753046 0.26378359 3.11264647 0.5275672 4.60742019 0.87927867 4.3436366 0.84410753 8.52900303 1.81131405 12.80229733 2.72576386a87.04858757 87.04858757 0 0 1 20.17065251 4.78327592c44.01668984 11.32510917 81.28051954 26.71248576 105.14414246 41.71297975h0.56273833c8.07177812 4.78327593 15.93252935 9.81274989 23.65259602 14.9829084a76.322487 76.322487 0 0 1 11.94060424 8.37073287 491.56952898 491.56952898 0 0 1 43.94634753 35.43493008l2.5674937 2.00475535c2.26853894 1.77614289 4.36122217 3.8160694 6.33080637 6.03185163a466.89696971 466.89696971 0 0 1 58.40168875 67.56377242c1.14306227 1.56511602 2.30371009 3.09506089 3.34125891 4.73051919a460.93546038 460.93546038 0 0 1 53.68875514 102.80526122c0.21102687 0.49239605 0.36929704 1.00237767 0.56273834 1.49477372 2.4268091 6.59458997 4.5370779 13.32986452 6.54183324 20.10031022 4.27329431 7.77282338 6.52424767 14.80705269 5.97909491 20.22340923 0.65066621 2.16302551 1.12547669 4.23812316 1.24857571 6.13736508l0.93203536 3.55228579c1.38926028 3.5522858 2.19819665 6.84078799 2.35646683 9.77757873 0.50998163 2.3564668 1.19581898 4.62500575 1.68821503 6.963887 5.48669885 13.36503566 3.53470023 23.529497-12.57368486 23.52949701z" fill="#9599a4" p-id="5466"></path><path d="M512 52.53682312c-122.67695896 0-222.28164585 99.60468687-222.28164585 222.28164585s99.60468687 222.28164585 222.28164585 222.28164585c122.69454455 0 222.29923142-99.60468687 222.29923142-222.28164585S634.69454455 52.53682312 512 52.53682312z m205.80396371 239.02311159a100.90601929 100.90601929 0 0 1-4.37880774 27.69727786 95.96447321 95.96447321 0 0 1-7.9486791 28.34794408 89.8622793 89.8622793 0 0 1-8.79278663 20.71580528c-4.9943028 12.30990128-12.36265799 23.56466815-22.65021833 32.26952691a74.56283057 74.56283057 0 0 1-14.93015171 16.74146573 77.20066655 77.20066655 0 0 1-31.16163578 26.9586838 76.04001872 76.04001872 0 0 1-26.04423399 16.0380428 79.41644877 79.41644877 0 0 1-32.92019311 13.92777401c-5.71531131 1.88165634-12.04611767 2.98954744-18.65829321 3.71055595a94.0124746 94.0124746 0 0 1-26.58938675 3.72814153c-1.30133242 0-2.49715139-0.19344129-3.76331267-0.24619803-1.68821503 0.08792786-3.30608777 0.24619803-5.02947394 0.24619803a106.04100668 106.04100668 0 0 1-8.66968763-0.42205375c-1.98716977 0.17585573-3.90399726 0.42205376-5.9790949 0.42205375a93.20353821 93.20353821 0 0 1-28.68206996-4.29087986c-20.8389043-0.59790949-37.70346904-7.21008502-50.57610867-17.58557326a76.74344166 76.74344166 0 0 1-35.32941665-23.24812783 85.76484072 85.76484072 0 0 1-33.9225708-31.58368956 82.52909526 82.52909526 0 0 1-11.71199178-17.16351949 86.50343481 86.50343481 0 0 1-15.58081791-26.73007133 94.25867261 94.25867261 0 0 1-6.75286011-20.68063414 94.22350146 94.22350146 0 0 1-9.58413743-32.09367118 100.94119045 100.94119045 0 0 1-3.20057433-43.11982562 100.00915506 100.00915506 0 0 1 5.22291525-36.91211823c1.07271996-4.22053757 2.44439469-8.33556171 4.02709628-12.36265798a94.08281688 94.08281688 0 0 1 9.05657022-27.01144051 84.53385061 84.53385061 0 0 1 20.57512071-33.07846329 80.89363694 80.89363694 0 0 1 22.15782229-28.48862865c4.55466347-5.34601427 9.79516429-10.12929019 15.80943036-14.17397203a76.67309937 76.67309937 0 0 1 30.40545613-19.78376992c3.20057432-1.67062946 6.26046408-3.49952907 9.79516431-4.78327592 11.1140823-7.64972436 24.9187573-12.52092816 41.15024139-13.78708942a88.2795777 88.2795777 0 0 1 20.48719284-5.13498739 94.61038407 94.61038407 0 0 1 56.18590652 0.22861243h0.03517115A86.1693089 86.1693089 0 0 1 581.63887006 80.21651542c18.79897779 3.25333106 33.6587872 11.94060423 44.66735604 23.74052388a75.19591121 75.19591121 0 0 1 30.40545615 22.31609246 80.91122252 80.91122252 0 0 1 24.67255926 32.19918461c1.60028716 2.63783598 3.16540318 5.29325754 4.57224906 8.01902142 12.08128882 12.73195504 19.62549974 29.15688045 22.52711932 46.5314268 1.68821503 4.13260972 2.97196187 8.42348958 4.06226742 12.78471175 5.69772573 14.45534121 7.43869749 30.40545615 5.89116703 45.98627404a102.29747777 102.29747777 0 0 1-0.59790948 17.97245587c-0.03517115 0.59790949 0.03517115 1.19581898-0.03517115 1.79372846z" fill="#9599a4" p-id="5467"></path><path d="M512 38.46836455c-130.5552958 0-236.35010444 105.79480866-236.35010444 236.35010442 0 130.5552958 105.79480866 236.35010444 236.35010444 236.35010444s236.33251889-105.79480866 236.33251889-236.35010444c0-130.5552958-105.77722308-236.35010444-236.33251889-236.35010442z m77.44686457 429.45728426a81.72015888 81.72015888 0 0 1-11.60647835 4.25570871A206.64807122 206.64807122 0 0 1 512 483.03165623c-17.21627622 0-33.85222851-2.33888124-49.85510015-6.3132208a82.72253655 82.72253655 0 0 1-32.58606723-10.85029869 209.62003311 209.62003311 0 0 1-67.51101569-47.16450746c-0.22861245-0.24619803-0.47481047-0.4572249-0.68583736-0.70342293a207.59769218 207.59769218 0 0 1-56.74864489-126.52819949 102.34803631 102.34803631 0 0 1-0.70342292-13.92777402c0-0.91444981-0.1406846-1.81131405-0.14068458-2.72576387 0-6.62976111 0.42205376-13.15400879 1.03754883-19.62549973 0.35171146-5.76806802 1.14306227-11.46579375 2.46198026-17.05800607 2.21578225-12.32748685 5.90875261-24.05706421 10.21721803-35.50527237a89.12148703 89.12148703 0 0 1 4.36122219-10.93822657c0.80893638-1.8464852 1.37167472-3.8160694 2.2333678-5.62738342a86.34516466 86.34516466 0 0 1 11.65923505-21.36647151c4.62500575-7.38594077 9.67206529-14.47292678 15.14117858-21.22578691l0.0527567-0.07034229 0.01758558-0.01758556c3.92158283-5.60979786 8.63451646-10.67444296 13.98053072-15.15876416 1.28374683-1.30133242 2.39163795-2.760935 3.71055597-4.02709626 2.93679075-3.13023204 6.10219392-6.10219392 9.58413741-8.72244433 1.35408913-1.12547669 2.91920515-1.98716977 4.30846545-3.07747532a76.14553216 76.14553216 0 0 1 25.81562153-17.51523095c7.40352634-4.25570873 14.93015168-8.35314729 22.86124521-11.71199179 4.3436366-2.16302551 9.00381351-3.95675399 13.96294516-5.34601426a209.03970919 209.03970919 0 0 1 45.42353569-9.95343447A96.82616631 96.82616631 0 0 1 512 65.51497619c7.33318404 0 14.1915576 0.75617964 20.55753513 2.14543995 7.31559847 0.7210085 14.47292678 1.89924191 21.54232721 3.35884447 6.47149096 0.93203538 12.50334258 2.46198025 18.07796932 4.55466347 6.31322079 1.91682749 12.46817143 4.20295201 18.53519418 6.68251785a78.07994521 78.07994521 0 0 1 26.04423399 12.81988288c8.2124627 4.80086149 16.00287165 10.23480364 23.45915472 16.07321396a77.37652229 77.37652229 0 0 1 16.47768212 14.43775563c1.03754882 1.00237767 1.91682749 2.12785436 2.93679075 3.13023203 5.45152771 4.66017691 10.18204691 9.93584888 14.12121532 15.77425921a206.92944039 206.92944039 0 0 1 43.94634755 99.20021869c0.63308063 3.46435793 1.12547669 6.963887 1.40684585 10.5161728 0.68583735 6.78803127 1.10789112 13.64640485 1.10789111 20.61029184 0 87.41788462-54.23390791 162.29725551-130.76632268 193.10717984z" fill="#9599a4" p-id="5468"></path></svg>