<?xml version="1.0" standalone="no"?><!DOCTYPE svg PUBLIC "-//W3C//DTD SVG 1.1//EN" "http://www.w3.org/Graphics/SVG/1.1/DTD/svg11.dtd"><svg t="1578495577152" class="icon" viewBox="0 0 1024 1024" version="1.1" xmlns="http://www.w3.org/2000/svg" p-id="3131" xmlns:xlink="http://www.w3.org/1999/xlink" width="200" height="200"><defs><style type="text/css"></style></defs><path d="M184.8 8.9H844c4.4 0 7.9 3.6 7.9 7.9v992.5c0 4.4-3.6 7.9-7.9 7.9H184.8c-4.4 0-7.9-3.6-7.9-7.9V16.8c0-4.4 3.5-7.9 7.9-7.9z m473.8 362.4L570.1 532h63.8v45.8h-77v39.5h77v45.8h-77v66.4H484v-66.4h-79.5v-45.8H484v-39.5h-79.5V532h65.3l-86-160.7h76.7l62.9 144h0.9c2-5.4 5.1-13.2 9.5-23.4l52-120.7h72.8v0.1zM225.3 909h581.1V177H225.3v732z m213.6-791.9h159.5V71.5H438.9v45.6z" fill="#0093DD" p-id="3132"></path></svg>