<?xml version="1.0" standalone="no"?><!DOCTYPE svg PUBLIC "-//W3C//DTD SVG 1.1//EN" "http://www.w3.org/Graphics/SVG/1.1/DTD/svg11.dtd"><svg t="1579348414959" class="icon" viewBox="0 0 1293 1024" version="1.1" xmlns="http://www.w3.org/2000/svg" p-id="2680" xmlns:xlink="http://www.w3.org/1999/xlink" width="252.5390625" height="200"><defs><style type="text/css"></style></defs><path d="M220.410015 399.45774c-1.274865 67.709503 11.048831 169.840365-68.559413 169.840365-55.102504 0-56.377369-66.57629-56.377369-66.57629l-35.41292-326.223821S34.279707 5.382764 277.920598 0.424955C521.419837-4.391202 547.200443 208.511274 547.200443 208.511274h205.536588s47.736616 9.915618 46.461752 67.709503c-1.274865 57.935537-40.370729 56.660672-40.370729 56.660673H279.195463c0 0.141652-57.652234-1.133213-58.785448 66.57629z m632.616406 623.125743c-243.499239 4.816157-269.138193-208.227971-269.138193-208.22797H378.209988s-47.736616-9.915618-46.461752-67.709504c1.274865-57.935537 40.370729-56.660672 40.370729-56.660672h479.632591s57.510582 1.274865 59.918661-66.57629c1.274865-67.709503-11.048831-169.840365 68.559414-169.840365 55.102504 0 56.377369 66.57629 56.377369 66.57629l35.41292 326.22382c-1.133213 0 24.647392 171.11523-218.993499 176.214691z m0 0" p-id="2681"></path></svg>