<?xml version="1.0" standalone="no"?><!DOCTYPE svg PUBLIC "-//W3C//DTD SVG 1.1//EN" "http://www.w3.org/Graphics/SVG/1.1/DTD/svg11.dtd"><svg t="1578496037970" class="icon" viewBox="0 0 1024 1024" version="1.1" xmlns="http://www.w3.org/2000/svg" p-id="22615" xmlns:xlink="http://www.w3.org/1999/xlink" width="200" height="200"><defs><style type="text/css"></style></defs><path d="M0 0h1024v1024H0z" fill="#FFFFFF" p-id="22616"></path><path d="M250.88 148.48c10.24-7.68 17.92-15.36 28.16-20.48v291.84c-43.52-30.72-84.48-64-128-94.72-25.6-17.92-48.64-35.84-74.24-53.76C135.68 230.4 192 189.44 250.88 148.48zM192 217.6c0 7.68-2.56 12.8-2.56 20.48-2.56 7.68 7.68 17.92 0 25.6-5.12 12.8-10.24 23.04-15.36 33.28-2.56 5.12-2.56 10.24 0 12.8 2.56 5.12 10.24 2.56 15.36 2.56 5.12 2.56 7.68 5.12 12.8 5.12s7.68-2.56 12.8-2.56 10.24 2.56 12.8 0c2.56 0 5.12-2.56 10.24-5.12h12.8c5.12-2.56 5.12-10.24 2.56-15.36-7.68-7.68-15.36-17.92-20.48-28.16-7.68-10.24 5.12-23.04 0-33.28C230.4 230.4 230.4 222.72 230.4 217.6h-5.12c-2.56 7.68-7.68 12.8-12.8 15.36-7.68-2.56-12.8-7.68-15.36-12.8 0-2.56-2.56-2.56-5.12-2.56z m102.4-89.6c25.6 17.92 51.2 35.84 79.36 53.76l130.56 92.16c-5.12 2.56-10.24 7.68-12.8 10.24-64 43.52-128 89.6-194.56 133.12-2.56-94.72-2.56-192-2.56-289.28z m20.48 110.08c2.56 7.68 7.68 12.8 10.24 17.92 2.56 0 5.12-2.56 7.68-2.56v61.44c23.04 2.56 46.08 2.56 69.12 0 2.56-20.48 0-40.96 0-61.44 2.56 0 5.12 2.56 7.68 2.56 5.12-5.12 10.24-12.8 12.8-20.48-12.8-2.56-25.6-10.24-38.4-12.8-2.56 7.68-10.24 12.8-17.92 12.8-7.68 0-12.8-7.68-15.36-12.8-12.8 2.56-25.6 10.24-35.84 15.36z m204.8 38.4c69.12-51.2 140.8-99.84 209.92-148.48v289.28c-69.12-46.08-140.8-94.72-209.92-140.8z m112.64-58.88c-2.56 12.8-5.12 25.6 0 38.4s17.92 20.48 25.6 30.72c5.12 5.12 2.56 12.8 2.56 17.92-7.68 2.56-12.8 5.12-20.48 10.24h46.08c-7.68-2.56-12.8-7.68-20.48-10.24 0-5.12-2.56-15.36 2.56-17.92 10.24-7.68 20.48-17.92 25.6-30.72 5.12-12.8 0-25.6-2.56-38.4h-58.88zM742.4 128l53.76 38.4c43.52 30.72 84.48 58.88 128 89.6l23.04 15.36c-69.12 48.64-135.68 97.28-204.8 148.48V128z m38.4 79.36c2.56 7.68 7.68 17.92 17.92 20.48h15.36c-2.56-5.12-2.56-12.8-7.68-15.36-7.68-7.68-17.92-5.12-25.6-5.12z m40.96 7.68c-2.56 2.56-5.12 7.68-7.68 12.8 5.12 0 12.8 0 15.36-2.56 2.56-2.56 5.12-7.68 7.68-12.8-5.12 0-10.24 0-15.36 2.56z m-15.36 17.92c-23.04 2.56-40.96 28.16-35.84 51.2 2.56 20.48 23.04 38.4 46.08 35.84 10.24-2.56 23.04-5.12 30.72-15.36 10.24-12.8 12.8-30.72 7.68-46.08-10.24-17.92-28.16-28.16-48.64-25.6z m-56.32 199.68c66.56-48.64 130.56-94.72 197.12-143.36v289.28c-66.56-48.64-130.56-94.72-197.12-143.36 0 0-2.56-2.56 0-2.56z m104.96-28.16c-15.36 2.56-33.28 12.8-38.4 28.16-2.56 10.24 7.68 15.36 12.8 23.04 7.68 7.68 17.92 10.24 28.16 12.8 7.68 5.12 12.8 10.24 23.04 15.36 2.56-7.68 2.56-12.8 2.56-20.48 10.24-5.12 17.92-12.8 25.6-17.92 7.68 2.56 12.8 10.24 17.92 12.8 2.56 0 7.68 0 7.68-2.56 0-5.12-2.56-12.8-5.12-17.92 2.56-5.12 5.12-10.24 5.12-17.92 0-5.12-5.12-7.68-10.24-5.12-5.12 2.56-10.24 7.68-12.8 12.8-10.24-5.12-17.92-12.8-28.16-17.92v-20.48c-12.8 0-20.48 10.24-28.16 15.36zM76.8 291.84c66.56 48.64 130.56 94.72 197.12 143.36 2.56 0 0 2.56 0 2.56-66.56 46.08-130.56 94.72-197.12 140.8V291.84z m58.88 99.84c-2.56 5.12-5.12 10.24-7.68 12.8-2.56 2.56-5.12 5.12-10.24 5.12-7.68 5.12-10.24 15.36-10.24 23.04-2.56 7.68-2.56 17.92 0 25.6 0 7.68 7.68 12.8 15.36 12.8h58.88c5.12 0 10.24-2.56 12.8-5.12 5.12-5.12 2.56-15.36 2.56-23.04-2.56-10.24-2.56-23.04-7.68-30.72-2.56-2.56-10.24-5.12-15.36-10.24-2.56-7.68-7.68-15.36-17.92-17.92-5.12 0-15.36 2.56-20.48 7.68z m296.96-17.92c10.24-12.8 12.8-28.16 20.48-40.96 7.68 12.8 12.8 25.6 17.92 38.4 5.12 0 10.24 2.56 17.92 2.56v15.36c7.68-2.56 15.36-2.56 25.6-5.12-5.12-17.92-12.8-35.84-17.92-51.2 17.92 7.68 33.28 12.8 48.64 20.48-5.12 10.24-7.68 23.04-12.8 35.84 7.68-2.56 15.36-2.56 20.48-5.12 2.56 0 2.56-2.56 5.12-5.12 7.68-15.36 12.8-30.72 17.92-46.08 12.8 7.68 23.04 17.92 35.84 25.6l-7.68 7.68c-7.68 7.68-17.92 12.8-25.6 20.48h33.28c2.56 7.68 5.12 17.92 7.68 25.6h-20.48c-2.56 10.24-5.12 20.48-7.68 33.28 10.24 2.56 17.92 2.56 28.16 7.68 5.12 7.68 7.68 15.36 10.24 25.6-10.24 2.56-23.04 2.56-33.28 5.12L588.8 537.6c-5.12 5.12-12.8 10.24-17.92 12.8-5.12-23.04-7.68-46.08-12.8-69.12-7.68 0-15.36 0-23.04-2.56-5.12 17.92-7.68 38.4-12.8 56.32-5.12 7.68-12.8 7.68-20.48 12.8 0-23.04 0-43.52-2.56-66.56-5.12 0-10.24 0-15.36-2.56-2.56-7.68-5.12-12.8-7.68-20.48-10.24 10.24-7.68 25.6-10.24 38.4-2.56 17.92-5.12 35.84-7.68 51.2-12.8-10.24-28.16-17.92-40.96-30.72 7.68-2.56 17.92-5.12 25.6-7.68-2.56-12.8-2.56-25.6-5.12-38.4-5.12 2.56-10.24 7.68-15.36 10.24-5.12-12.8-7.68-28.16-12.8-40.96 10.24 0 20.48-2.56 28.16-5.12 0-10.24-2.56-17.92-2.56-28.16-2.56 0-5.12-2.56-7.68-2.56-5.12-7.68-10.24-15.36-15.36-25.6 7.68 0 15.36-2.56 20.48-5.12z m33.28 64h25.6l-7.68 15.36 23.04-7.68c-2.56-7.68-2.56-17.92-5.12-25.6-5.12-2.56-10.24-2.56-15.36-5.12-5.12-5.12-5.12-10.24-7.68-15.36-10.24 7.68-10.24 23.04-12.8 38.4z m74.24-20.48c-2.56 10.24-2.56 20.48-5.12 30.72 10.24-2.56 17.92-2.56 28.16-5.12 0-10.24-2.56-20.48-2.56-28.16-7.68 0-12.8 0-20.48 2.56z m-391.68-25.6c7.68-2.56 15.36 5.12 17.92 12.8H135.68c5.12-5.12 7.68-10.24 12.8-12.8z m381.44 204.8l199.68-145.92V742.4l-61.44-46.08c-46.08-33.28-92.16-69.12-138.24-99.84z m120.32-58.88c-2.56 5.12-2.56 12.8-5.12 17.92 5.12-2.56 10.24-2.56 15.36-5.12 7.68-2.56 17.92 0 25.6 5.12-2.56-5.12-2.56-12.8-5.12-17.92h-30.72z m5.12 23.04c-10.24 2.56-17.92 10.24-23.04 20.48-5.12 12.8 2.56 30.72 15.36 38.4 10.24 7.68 28.16 5.12 38.4-5.12 17.92-12.8 12.8-43.52-7.68-51.2-7.68-5.12-15.36-2.56-23.04-2.56z m-10.24 66.56c2.56 5.12 2.56 12.8 5.12 17.92h28.16c2.56-5.12 2.56-10.24 5.12-17.92-10.24 7.68-25.6 5.12-38.4 0z m97.28-179.2c69.12 48.64 135.68 94.72 204.8 143.36l-107.52 76.8c-30.72 23.04-64 46.08-94.72 69.12-2.56-94.72-2.56-192-2.56-289.28z m66.56 81.92v20.48h7.68c2.56-5.12 0-7.68 0-12.8 5.12-7.68-5.12-5.12-7.68-7.68z m-28.16 2.56v17.92c2.56 0 5.12 2.56 7.68 2.56-2.56-7.68 5.12-20.48-7.68-20.48z m58.88 0c-2.56 5.12 0 10.24 0 15.36 0 2.56 7.68 2.56 7.68 0 2.56-5.12 0-10.24 0-15.36h-7.68z m-66.56 28.16v74.24c0 2.56 5.12 5.12 7.68 5.12h58.88c5.12 0 10.24 2.56 12.8-2.56 2.56-5.12 2.56-10.24 2.56-15.36 5.12-2.56 7.68-2.56 12.8-5.12 7.68-5.12 10.24-15.36 5.12-25.6-5.12-7.68-12.8-10.24-20.48-12.8v-17.92h-79.36zM76.8 591.36c66.56-46.08 133.12-94.72 202.24-140.8v289.28c-40.96-28.16-79.36-58.88-120.32-89.6-28.16-20.48-56.32-38.4-81.92-58.88z m168.96-48.64c-5.12 7.68-12.8 12.8-15.36 20.48-7.68 12.8-10.24 28.16-20.48 40.96-15.36 5.12-35.84 5.12-48.64 20.48 12.8 10.24 33.28 12.8 51.2 7.68 10.24-2.56 12.8-12.8 15.36-20.48 2.56-10.24 5.12-20.48 12.8-25.6 2.56-2.56 5.12 2.56 5.12 5.12v43.52h5.12c0-15.36-2.56-33.28 5.12-48.64 2.56-7.68 7.68-15.36 5.12-25.6-2.56-7.68-10.24-15.36-15.36-17.92z m48.64-92.16c40.96 28.16 79.36 56.32 117.76 87.04 25.6 20.48 53.76 38.4 79.36 58.88-66.56 48.64-133.12 97.28-197.12 145.92V450.56z m56.32 94.72c-5.12 2.56-5.12 7.68-10.24 10.24-7.68 0-12.8 0-20.48 2.56-2.56 0-5.12 5.12-5.12 7.68v58.88c0 5.12 7.68 5.12 10.24 5.12H409.6c5.12 0 5.12-5.12 5.12-10.24v-58.88c-7.68-5.12-15.36-5.12-23.04-5.12-2.56-5.12-7.68-7.68-12.8-10.24h-28.16z m-48.64 207.36c69.12-48.64 135.68-97.28 204.8-143.36v153.6c2.56 46.08 0 92.16 0 135.68-48.64-33.28-94.72-69.12-143.36-102.4-20.48-15.36-43.52-30.72-61.44-43.52z m128-56.32h10.24c-2.56-2.56-2.56-5.12-5.12-5.12l-5.12 5.12z m-35.84 23.04c-7.68 7.68-10.24 20.48-15.36 30.72 2.56 0 7.68-2.56 10.24-2.56 7.68 0 15.36 2.56 20.48 0 5.12-2.56 12.8-2.56 17.92 0 0 12.8 0 28.16-2.56 40.96 0 5.12-7.68 5.12-10.24 5.12l-7.68-15.36c-2.56 2.56-5.12 2.56-5.12 5.12-2.56 7.68 5.12 17.92 12.8 20.48 10.24 2.56 20.48-2.56 23.04-12.8v-43.52c7.68-2.56 15.36 0 23.04 2.56 10.24-2.56 17.92-2.56 28.16 0-2.56-10.24-5.12-20.48-12.8-28.16-5.12-5.12-10.24-10.24-17.92-12.8-17.92-15.36-48.64-10.24-64 10.24z m125.44-110.08c69.12 48.64 135.68 94.72 204.8 143.36-66.56 48.64-135.68 99.84-202.24 148.48-2.56-99.84-2.56-197.12-2.56-291.84z m66.56 81.92c-2.56 2.56-2.56 7.68-7.68 7.68-7.68 5.12-15.36 12.8-23.04 17.92 2.56 2.56 7.68 2.56 10.24 2.56h56.32c-5.12-7.68-12.8-10.24-17.92-15.36-7.68-5.12-12.8-10.24-17.92-12.8z m-30.72 38.4v53.76c0 2.56 0 7.68 5.12 7.68h58.88c2.56-7.68 2.56-15.36 2.56-23.04v-38.4c0-2.56-5.12-2.56-7.68-2.56-23.04 0-40.96 0-58.88 2.56z" fill="#E54B34" p-id="22617"></path></svg>