<?xml version="1.0" standalone="no"?><!DOCTYPE svg PUBLIC "-//W3C//DTD SVG 1.1//EN" "http://www.w3.org/Graphics/SVG/1.1/DTD/svg11.dtd"><svg t="1579014606291" class="icon" viewBox="0 0 1024 1024" version="1.1" xmlns="http://www.w3.org/2000/svg" p-id="6969" xmlns:xlink="http://www.w3.org/1999/xlink" width="200" height="200"><defs><style type="text/css"></style></defs><path d="M369.75373212 369.80408031A158.88634984 158.88634984 0 0 0 325.98855439 512c9.46546265-42.95960643 31.71936954-84.93742286 66.38410909-119.62733652C427.06257714 357.67016277 469.04039357 335.42884295 512 325.96338028c-49.97059406-9.41511445-103.59143303 5.17327812-142.24626788 43.84070003z" fill="#969696" p-id="6970"></path><path d="M746.74850863 664.47954068l-59.83884237-59.83884236a58.02630697 58.02630697 0 0 0-45.62806132-16.77853952c56.27670682-81.4004614 48.14547161-193.91611389-24.33077036-266.40494291-81.58926717-81.61444129-213.90435151-81.61444129-295.51879279 0-81.58926717 81.61444129-81.58926717 213.94211267 0 295.55655394 72.47624197 72.48882902 184.90378508 80.55712897 266.3545947 24.28042216-1.25870513 16.36316682 4.35511978 33.2046416 16.77853951 45.62806133l59.83884237 59.85142942c22.65669253 22.60634432 59.67521069 22.60634432 82.28155501 0 22.71962777-22.60634432 22.71962777-59.63744953 0.06293525-82.29414207zM592.68299949 592.68299949c-68.18405745 68.18405745-178.67319463 68.18405745-246.83207798 0-68.18405745-68.18405745-68.18405745-178.69836875 0-246.8824262 68.15888333-68.18405745 178.64802053-68.18405745 246.83207798 0 68.17147039 68.13370922 68.17147039 178.69836875 0 246.8824262z" fill="#969696" p-id="6971"></path></svg>