<?xml version="1.0" standalone="no"?><!DOCTYPE svg PUBLIC "-//W3C//DTD SVG 1.1//EN" "http://www.w3.org/Graphics/SVG/1.1/DTD/svg11.dtd"><svg t="1579348519532" class="icon" viewBox="0 0 1024 1024" version="1.1" xmlns="http://www.w3.org/2000/svg" p-id="3445" xmlns:xlink="http://www.w3.org/1999/xlink" width="200" height="200"><defs><style type="text/css"></style></defs><path d="M425.699509 257.07319 538.134486 226.403218C543.558005 224.92302 546.750291 219.347399 545.262802 213.949444 543.776333 208.551488 538.173254 205.373831 532.747694 206.853016L420.313738 237.522987C414.889198 239.002171 411.695894 244.579822 413.183381 249.977778 414.670872 255.375733 420.27497 258.552374 425.699509 257.07319L425.699509 257.07319 425.699509 257.07319ZM824.275102 707.751226 818.144566 685.494429C833.895827 668.661986 840.787451 644.352403 834.230462 620.541296 828.714104 600.515966 814.822712 585.025651 797.356451 576.740392 814.76456 559.475462 822.617235 533.656238 815.656237 508.387267 809.364506 485.548749 792.429781 468.466558 771.647787 460.944749 785.671808 443.928549 791.483013 420.642315 785.192301 397.803794 778.900571 374.964258 761.968907 357.883083 741.183853 350.362291 755.208893 333.345075 761.020098 310.059854 754.727347 287.221336 746.844066 258.60212 722.26071 239.014352 694.312653 235.97375L673.593912 160.766836C664.650614 128.306006 630.960728 109.205546 598.339016 118.105016L316.407848 195.010403C283.787158 203.907842 264.592635 237.43669 273.534912 269.895491L281.884437 300.206074C254.111858 316.764406 232.395336 339.782622 217.241927 361.01607 199.462457 385.929712 186.90144 440.627034 183.022542 469.921376 179.145685 499.216734 204.957391 554.967859 208.487372 562.363779 212.018373 569.758683 226.703499 593.247965 199.580804 622.195098 172.459128 651.143246 105.051806 691.082232 90.544199 706.183714 76.036592 721.286214 46.794888 772.36121 96.181965 816.106275 145.570064 859.852357 241.67939 937.665357 241.67939 937.665357 241.67939 937.665357 310.088574 988.109896 355.987501 924.319198L401.886427 860.526467 425.442414 820.772254C435.914011 850.843245 468.177622 868.078733 499.467939 859.541699L781.399104 782.637326C814.025915 773.738874 833.2184 740.210026 824.275102 707.751226L824.275102 707.751226 824.275102 707.751226ZM779.26071 680.549266 687.352674 705.622298C664.114995 711.958322 640.11419 698.35328 633.744922 675.230498 627.374634 652.106699 641.046675 628.224528 664.285374 621.885456L756.193411 596.813438C779.42905 590.475384 803.430874 604.081442 809.801162 627.204224 816.169411 650.330053 802.497366 674.21121 779.26071 680.549266L779.26071 680.549266 779.26071 680.549266ZM790.651528 515.208571C797.17179 538.875515 783.176336 563.319107 759.393859 569.806402L648.286197 600.114954C648.277013 600.114954 648.270893 600.116982 648.264771 600.119013 624.482294 606.607322 599.917304 592.683499 593.398062 569.014525 586.879842 545.348595 600.874275 520.905002 624.657773 514.416694L735.78584 484.104082C759.568318 477.615774 784.132286 491.542642 790.651528 515.208571L790.651528 515.208571 790.651528 515.208571ZM760.189635 404.624082C766.709896 428.290011 752.713422 452.734619 728.930944 459.221912L617.822261 489.531478C617.81512 489.533512 584.471088 498.627904 584.463947 498.630949 560.68045 505.118242 536.115459 491.192389 529.597238 467.525443 523.076978 443.858499 537.07345 419.414907 560.85593 412.927614L705.322926 373.519592C729.104382 367.032301 753.668354 380.958154 760.189635 404.624082L760.189635 404.624082 760.189635 404.624082ZM729.726722 294.040608C736.246982 317.706539 722.251528 342.151146 698.46803 348.638438L587.359346 378.945976C587.353226 378.948008 587.347104 378.950035 587.337923 378.952067 563.555445 385.440376 538.991475 371.513507 532.472234 347.847578 525.951973 324.180634 539.947427 299.737043 563.729904 293.249749L674.861032 262.935107C698.642488 256.448827 723.206461 270.37468 729.726722 294.040608L729.726722 294.040608 729.726722 294.040608ZM313.109459 283.428454C306.402496 259.083338 320.798899 233.937208 345.263907 227.26413L591.091331 160.205418C615.556341 153.532338 640.827326 167.85819 647.53225 192.203306L660.712544 240.044806 632.209483 247.820421C625.130138 237.034662 611.631533 231.512851 598.476746 235.100658L382.50112 294.015229C376.181843 295.739082 370.87667 299.316738 366.999813 303.990838 357.059757 297.55329 335.985978 286.055858 314.285779 287.697478L313.109459 283.428454 313.109459 283.428454 313.109459 283.428454ZM321.698739 444.726517 412.727341 775.170342 327.215098 895.756837C327.215098 895.756837 303.575451 931.929333 273.040101 910.535478 242.50475 889.141624 242.504749 889.141624 242.504749 889.141624L119.00747 782.387582C119.00747 782.387582 94.655706 756.334856 117.240439 735.312576 139.825172 714.290294 139.825171 714.290294 139.825171 714.290294 139.825171 714.290294 198.696266 667.766557 215.477957 652.783853 232.259646 637.803182 269.268328 609.501731 245.995962 552.13132 222.723598 494.760909 221.448316 484.706112 221.236109 467.672653 221.024923 450.64021 236.305861 400.398714 247.01823 379.643437 247.01823 379.643437 264.70792 350.821176 291.371515 333.600915 300.827986 327.558293 310.386477 324.003986 317.639262 322.443582 331.69797 319.928869 344.45283 323.803986 355.31109 329.527829 356.865915 330.130872 359.235898 331.303459 362.226178 332.913606 362.632229 333.131882 363.049499 333.359291 363.477995 333.593808 363.795285 333.767411 364.111555 333.941016 364.440067 334.122741 364.754298 334.29736 365.077709 334.477056 365.401118 334.657765 365.715349 334.834414 366.035699 335.013094 366.359112 335.195834 366.696806 335.38568 367.031442 335.573499 367.378317 335.770451 367.758861 335.98568 368.152667 336.211059 368.544437 336.43644 369.123923 336.767405 369.715656 337.107504 370.321667 337.457757 370.655282 337.65065 370.988894 337.842528 371.331691 338.041512 371.745902 338.283136 372.166234 338.527805 372.59065 338.776536 372.912021 338.964352 373.238493 339.155216 373.565984 339.348107 374.012845 339.610035 374.456642 339.869933 374.912683 340.138968 375.12897 340.265872 375.353421 340.400898 375.572768 340.528816 376.507294 341.081099 377.462226 341.649626 378.438584 342.23135 378.755872 342.420181 379.072142 342.607998 379.392493 342.800891 379.900565 343.104443 380.412718 343.412058 380.929971 343.721702 381.266646 343.923731 381.607402 344.128808 381.948157 344.333883 383.724371 345.402915 385.552614 346.509512 387.42677 347.650626 387.781808 347.866869 388.136845 348.083112 388.494946 348.301386 389.037706 348.632349 389.581485 348.964326 390.131386 349.299352 390.533357 349.546051 390.939406 349.794781 391.344435 350.042498 430.373162 373.953098 485.311288 409.758082 485.311288 409.758082 477.72489 452.697058 455.957358 471.267568 408.459739 472.33457 405.532712 472.399544 402.661797 472.367058 399.849035 472.24929 389.233589 472.220866 363.308638 465.65337 363.308638 465.65337 340.690237 458.366077 325.77964 447.41179 321.698739 444.726517L321.698739 444.726517 321.698739 444.726517ZM508.621402 820.263629C484.156392 826.937723 458.885406 812.613902 452.179464 788.268787L374.122008 504.912152C388.367416 507.408592 409.561581 507.514176 409.561581 507.514176L459.964803 690.478174C464.435432 706.707574 481.281395 716.26085 497.592762 711.812128L602.639264 683.154334C602.685174 683.330984 602.722923 683.505603 602.771894 683.680222 604.170622 688.761427 606.128435 693.542125 608.528006 697.998968 592.861422 703.53601 583.909963 720.248658 588.375491 736.462829 593.055267 753.447557 610.685784 763.444486 627.756197 758.787645 640.732446 755.247552 649.640035 744.259763 651.115282 731.732891 662.64485 734.87603 675.141594 735.090243 687.506728 731.715632L785.958491 704.860878C786.640002 704.676107 787.305187 704.459866 787.977517 704.255805 790.363824 726.171485 776.501002 747.193765 754.451886 753.206949L508.621402 820.263629 508.621402 820.263629 508.621402 820.263629ZM149.616275 237.944306C152.586152 238.79608 155.599898 238.766638 158.377973 238.008266 163.642336 236.57172 168.052772 232.523 169.676971 226.922 186.872872 167.622658 231.793403 119.66542 289.840154 98.634002 298.248854 95.588325 302.583792 86.333526 299.522096 77.966035 296.460398 69.598543 287.175325 65.293985 278.752342 68.331541 211.012428 92.874626 158.596301 148.818644 138.540707 217.98192 136.058498 226.537228 141.017815 235.475277 149.616275 237.944306L149.616275 237.944306 149.616275 237.944306ZM302.503195 133.514116C255.79931 150.491738 219.583344 189.082502 205.624618 236.746339 203.120984 245.295555 208.055815 254.245787 216.648154 256.738166 219.629253 257.602125 222.659323 257.574712 225.45066 256.813293 230.700741 255.381826 235.101995 251.350362 236.737414 245.767637 247.821146 207.915958 276.563958 177.276441 313.620592 163.80541 322.02623 160.74958 326.350966 151.491736 323.281107 143.127291 320.212269 134.762843 310.907813 130.459302 302.503195 133.514116L302.503195 133.514116 302.503195 133.514116ZM942.195832 717.433435C939.119851 717.139021 936.162218 717.720744 933.570843 718.974547 928.663558 721.34916 925.076446 726.138997 924.514302 731.941014 918.577611 793.373342 883.29209 848.735638 830.122014 880.038096 822.420333 884.571078 819.869768 894.459378 824.426094 902.125349 828.984462 909.788272 838.904115 912.320246 846.624162 907.791323 908.669178 871.265531 949.848541 806.679909 956.773832 735.027299 957.631843 726.162347 951.10444 718.282163 942.195832 717.433435L942.195832 717.433435 942.195832 717.433435ZM887.363808 728.863862C888.244264 720.001957 881.737266 712.10756 872.833757 711.230405 869.741453 710.927867 866.767496 711.507562 864.165922 712.769486 859.269859 715.135979 855.689886 719.905509 855.113459 725.692298 851.217219 764.926714 828.629424 800.305304 794.695702 820.332664 786.998102 824.874784 784.45876 834.767146 789.02427 842.427026 793.588758 850.085888 803.529837 852.6138 811.227438 848.068635 853.995293 822.831133 882.456523 778.268813 887.363808 728.863862L887.363808 728.863862 887.363808 728.863862Z" fill="#1296db" p-id="3446"></path></svg>