<?xml version="1.0" standalone="no"?><!DOCTYPE svg PUBLIC "-//W3C//DTD SVG 1.1//EN" "http://www.w3.org/Graphics/SVG/1.1/DTD/svg11.dtd"><svg t="1579014627098" class="icon" viewBox="0 0 1024 1024" version="1.1" xmlns="http://www.w3.org/2000/svg" p-id="7737" xmlns:xlink="http://www.w3.org/1999/xlink" width="200" height="200"><defs><style type="text/css"></style></defs><path d="M0 0h1024v1024H0V0z" fill="#FD9A44" p-id="7738"></path><path d="M568.027429 679.643429c0-20.655543 4.856686-40.170057 13.502171-57.475658a123.757714 123.757714 0 0 0-15.008914-3.584c-13.560686-2.165029-14.101943-40.667429-14.101943-40.667428s40.126171-40.667429 49.342171-95.451429c23.873829 0 38.517029-58.031543 14.6432-78.628571 1.082514-21.7088 30.368914-169.208686-118.769371-169.208686-149.138286-0.541257-119.851886 146.973257-118.769372 168.667429-23.844571 20.597029-9.216 78.628571 14.6432 78.628571 8.689371 54.769371 49.3568 95.451429 49.3568 95.451429s-0.541257 38.5024-14.101942 40.667428C384.292571 625.093486 219.428571 699.392 219.428571 781.312h398.218972a128.643657 128.643657 0 0 1-49.634743-101.653943z" fill="#FFFFFF" p-id="7739"></path><path d="M697.153829 785.598171c-14.511543 0-28.233143-2.7648-41.194058-8.2944a106.715429 106.715429 0 0 1-33.938285-22.791314 106.773943 106.773943 0 0 1-22.791315-33.938286 103.877486 103.877486 0 0 1-8.2944-41.179428 103.862857 103.862857 0 0 1 8.2944-41.194057 103.760457 103.760457 0 0 1 22.791315-33.674972 108.865829 108.865829 0 0 1 33.938285-22.528 103.862857 103.862857 0 0 1 41.194058-8.309028 103.862857 103.862857 0 0 1 41.194057 8.2944 105.749943 105.749943 0 0 1 33.660343 22.528 105.706057 105.706057 0 0 1 22.542628 33.6896 103.862857 103.862857 0 0 1 8.2944 41.194057 103.862857 103.862857 0 0 1-8.2944 41.179428 108.895086 108.895086 0 0 1-22.528 33.938286 103.570286 103.570286 0 0 1-33.6896 22.791314 103.804343 103.804343 0 0 1-41.179428 8.2944z m52.3264-123.318857h-38.326858V626.541714c0-4.827429-1.565257-8.981943-4.681142-12.434285a15.316114 15.316114 0 0 0-11.907658-5.178515c-4.827429 0-8.630857 1.726171-11.410285 5.178515a19.309714 19.309714 0 0 0-4.139886 12.434285v35.752229h-33.674971c-4.827429 0-8.967314 1.726171-12.434286 5.178514-3.452343 3.452343-5.178514 7.606857-5.178514 12.434286 0 4.827429 1.726171 8.455314 5.178514 10.883657 3.452343 2.413714 7.606857 3.627886 12.434286 3.627886h33.674971v36.776228c0 4.827429 1.389714 8.981943 4.154514 12.434286 2.7648 3.452343 6.5536 5.178514 11.395657 5.178514 4.827429 0 8.8064-1.726171 11.922286-5.178514 3.101257-3.452343 4.651886-7.606857 4.651886-12.434286V694.418286h38.341486v1.024c4.827429 0 8.981943-1.375086 12.434285-4.139886 3.452343-2.7648 5.178514-6.568229 5.178515-11.410286 0-4.827429-1.726171-8.967314-5.178515-12.434285a16.969143 16.969143 0 0 0-12.434285-5.163886z" fill="#FFFFFF" p-id="7740"></path></svg>