<?xml version="1.0" standalone="no"?><!DOCTYPE svg PUBLIC "-//W3C//DTD SVG 1.1//EN" "http://www.w3.org/Graphics/SVG/1.1/DTD/svg11.dtd"><svg t="1579014677526" class="icon" viewBox="0 0 1038 1024" version="1.1" xmlns="http://www.w3.org/2000/svg" p-id="10507" xmlns:xlink="http://www.w3.org/1999/xlink" width="202.734375" height="200"><defs><style type="text/css"></style></defs><path d="M0.197933 0H1024.197933v1024H0.197933z" fill="#358ADB" p-id="10508"></path><path d="M204.190043 571.581854L442.51746 815.968442c6.059172 6.059172 14.138067 10.098619 22.216962 10.098619 8.078895 0 16.157791-4.039448 22.216963-10.098619l302.958579-294.879685c6.059172-6.059172 8.078895-12.118343 10.09862-20.197238l28.276134-264.583827c0-10.098619-2.019724-18.177515-8.078896-26.25641-6.059172-6.059172-16.157791-10.098619-26.25641-10.098619l-266.60355 20.197238c-8.078895 0-14.138067 4.039448-20.197239 8.078896l-302.95858 294.879684c-6.059172 6.059172-10.098619 14.138067-10.098619 22.216963 0 12.118343 4.039448 20.197239 10.098619 26.25641z m470.595661-284.781065c34.335306 0 60.591716 26.25641 60.591716 60.591716s-26.25641 60.591716-60.591716 60.591716-60.591716-26.25641-60.591716-60.591716 26.25641-60.591716 60.591716-60.591716zM456.655527 504.930966" fill="#FFFFFF" p-id="10509"></path></svg>