<?xml version="1.0" standalone="no"?><!DOCTYPE svg PUBLIC "-//W3C//DTD SVG 1.1//EN" "http://www.w3.org/Graphics/SVG/1.1/DTD/svg11.dtd"><svg t="1579348726019" class="icon" viewBox="0 0 1024 1024" version="1.1" xmlns="http://www.w3.org/2000/svg" p-id="7525" xmlns:xlink="http://www.w3.org/1999/xlink" width="200" height="200"><defs><style type="text/css"></style></defs><path d="M985.169 557.465h-242.499c-13.258 0-24.862 8.617-29.020 21.204-21.029 63.641-71.339 113.95-134.979 134.98-12.588 4.159-21.204 15.764-21.204 29.020v242.5c0 27.361 33.082 41.066 52.43 21.718l396.99-396.99c19.347-19.349 5.645-52.431-21.719-52.431z" fill="#1afa29" p-id="7526"></path><path d="M578.669 310.351c63.641 21.029 113.95 71.339 134.979 134.98 4.159 12.588 15.764 21.204 29.020 21.204h242.5c27.361 0 41.066-33.082 21.718-52.43l-396.99-396.99c-19.348-19.348-52.43-5.645-52.43 21.718v242.5c0 13.257 8.617 24.861 21.204 29.019z" fill="#1296db" p-id="7527"></path><path d="M445.331 713.648c-63.641-21.029-113.95-71.339-134.98-134.98-4.159-12.588-15.764-21.204-29.020-21.204h-242.5c-27.361 0-41.066 33.082-21.718 52.43l396.99 396.99c19.348 19.348 52.43 5.645 52.43-21.718v-242.498c0.001-13.258-8.615-24.863-21.203-29.021z" fill="#e16531" p-id="7528"></path><path d="M414.105 17.114l-396.99 396.99c-19.348 19.348-5.645 52.43 21.718 52.43h242.5c13.258 0 24.862-8.617 29.020-21.204 21.029-63.641 71.339-113.95 134.979-134.98 12.588-4.159 21.204-15.764 21.204-29.020v-242.499c0-27.361-33.082-41.066-52.43-21.718z" fill="#efb336" p-id="7529"></path></svg>