<?xml version="1.0" standalone="no"?><!DOCTYPE svg PUBLIC "-//W3C//DTD SVG 1.1//EN" "http://www.w3.org/Graphics/SVG/1.1/DTD/svg11.dtd"><svg t="1578495797067" class="icon" viewBox="0 0 1024 1024" version="1.1" xmlns="http://www.w3.org/2000/svg" p-id="9093" xmlns:xlink="http://www.w3.org/1999/xlink" width="200" height="200"><defs><style type="text/css"></style></defs><path d="M875.936081 859.764244c7.064872-4.300357 11.211645-7.47443 11.211646-7.47443a167.253173 167.253173 0 0 0 72.338149-150.00055l-33.993299-494.95062c-5.785004-82.935458-36.194672-148.464708-130.188191-148.464708h-165.000605C630.303781 3.839605 591.088621 0.051195 538.614025 0.051195H486.344209C433.664835 0.051195 394.449674 3.839605 394.449674 58.617962H252.691476a149.386213 149.386213 0 0 0-154.096129 148.464708l-33.993298 494.950621a176.365834 176.365834 0 0 0 87.747762 159.062016L91.632865 987.802256a25.239 25.239 0 0 0 13.515407 33.89091 28.873826 28.873826 0 0 0 10.955672 2.252568 24.778248 24.778248 0 0 0 3.78841-0.511948c1.279868 0 2.457347 0.511947 3.78841 0.511948h776.521618a40.085471 40.085471 0 0 0 6.50173-0.819116 29.180994 29.180994 0 0 0 6.245757 0.819116 28.413073 28.413073 0 0 0 10.904477-2.201374 25.187806 25.187806 0 0 0 13.515408-33.890909l-61.433673-127.986817z m-565.496953-143.345235A81.450811 81.450811 0 1 1 390.251707 634.865809a81.348421 81.348421 0 0 1-79.812579 81.348421z m403.158474 0A81.450811 81.450811 0 1 1 793.512571 634.865809a81.348421 81.348421 0 0 1-79.914969 81.348421zM793.512571 394.250592a40.648613 40.648613 0 0 1-40.034277 41.26295H270.660825A40.648613 40.648613 0 0 1 230.370575 394.250592V230.427466a40.648613 40.648613 0 0 1 40.085471-41.26295h482.663885a40.648613 40.648613 0 0 1 40.39264 41.26295z" fill="#147FFF" p-id="9094"></path><path d="M538.614025 20.529086c61.894425 0 71.26306 8.600714 71.26306 38.088876v20.477891h185.376107c69.676023 0 103.566933 39.931887 109.761494 129.522659l33.993299 495.001815a147.338424 147.338424 0 0 1-64.351772 132.287175c-0.358363 0.255974-3.839605 2.866905-9.471024 6.296951l-15.819171 9.675803 8.037572 16.689481 61.433672 127.986818a3.993189 3.993189 0 0 1 0 3.276462 5.375446 5.375446 0 0 1-3.020488 3.020489 7.781598 7.781598 0 0 1-2.866905 0.614337 14.07855 14.07855 0 0 1-2.047789-0.358363l-3.737215-0.819116-3.737215 0.563142-2.047789 0.358363H124.807048c-1.075089 0-2.150179-0.358363-3.276463-0.460752h-2.354957l-2.354958 0.358363h-1.382257a8.34474 8.34474 0 0 1-2.150179-0.511948 5.580225 5.580225 0 0 1-3.225268-3.122878 3.890799 3.890799 0 0 1 0-3.122878L170.779912 870.361553l8.088767-16.843065-16.023949-9.573414A157.270201 157.270201 0 0 1 84.97755 703.620327l33.993299-494.95062a129.369075 129.369075 0 0 1 133.720627-129.573854h162.287284v-20.477891C414.927565 29.1298 424.2962 20.529086 486.344209 20.529086h52.474595m0-20.477891H486.344209C433.664835 0.051195 394.449674 3.839605 394.449674 58.617962H252.691476a149.386213 149.386213 0 0 0-154.096129 148.464708l-33.993298 494.950621a176.417029 176.417029 0 0 0 87.747762 159.062016L91.632865 987.802256a25.239 25.239 0 0 0 13.515407 33.89091 28.873826 28.873826 0 0 0 10.955672 2.252568 24.624664 24.624664 0 0 0 3.78841-0.511948c1.279868 0 2.457347 0.511947 3.78841 0.511948h776.521618a40.187861 40.187861 0 0 0 6.450535-0.819116 29.692942 29.692942 0 0 0 6.245757 0.819116 28.361879 28.361879 0 0 0 10.904477-2.201374 25.187806 25.187806 0 0 0 13.515408-33.890909l-61.433672-127.986817c7.013678-4.300357 11.211645-7.47443 11.211645-7.47443a167.253173 167.253173 0 0 0 72.338149-150.00055l-33.993299-494.95062c-5.785004-82.935458-36.194672-148.464708-130.18819-148.464709h-164.898216C630.354976 3.839605 591.088621 0.051195 538.614025 0.051195z" fill="#147FFF" p-id="9095"></path><path d="M310.439128 553.363804A81.450811 81.450811 0 1 1 230.370575 634.865809a80.836474 80.836474 0 0 1 79.812579-81.399616m0-20.477891A101.211975 101.211975 0 0 0 209.892684 634.865809a102.389454 102.389454 0 0 0 100.29047 101.928701 101.928701 101.928701 0 0 0 0-203.806208z m403.158475 20.477891a81.450811 81.450811 0 1 1-79.863774 81.399616 80.836474 80.836474 0 0 1 79.863774-81.399616m0-20.477891a101.26317 101.26317 0 0 0-100.341665 101.877507 102.389454 102.389454 0 0 0 100.341665 101.928701 101.928701 101.928701 0 0 0 0-203.806208z m39.727108-343.823786a40.648613 40.648613 0 0 1 40.443834 41.26295v163.823126a40.648613 40.648613 0 0 1-40.034277 41.26295H270.660825A40.648613 40.648613 0 0 1 230.370575 394.250592V230.427466a40.648613 40.648613 0 0 1 40.085471-41.26295h482.663885m0-20.477891H270.660825A61.433672 61.433672 0 0 0 209.892684 230.427466v163.823126a61.433672 61.433672 0 0 0 60.768141 61.84323h482.663885A61.433672 61.433672 0 0 0 813.990462 394.250592V230.427466a61.433672 61.433672 0 0 0-60.614557-61.84323z" fill="#147FFF" p-id="9096"></path></svg>