<?xml version="1.0" standalone="no"?><!DOCTYPE svg PUBLIC "-//W3C//DTD SVG 1.1//EN" "http://www.w3.org/Graphics/SVG/1.1/DTD/svg11.dtd"><svg t="1578495590673" class="icon" viewBox="0 0 1024 1024" version="1.1" xmlns="http://www.w3.org/2000/svg" p-id="3309" xmlns:xlink="http://www.w3.org/1999/xlink" width="200" height="200"><defs><style type="text/css"></style></defs><path d="M326.398 563.839l98.922-98.922a1.426 1.426 0 0 1 2.017 0l98.922 98.922c0.557 0.557 0.557 1.46 0 2.017l-98.922 98.922a1.426 1.426 0 0 1-2.017 0l-98.922-98.922a1.426 1.426 0 0 1 0-2.017z" fill="#0093DD" p-id="3310"></path><path d="M98.817 253.329l-2.914-122.356s131.095 64.091 221.406-84.484c0 0 58.265 78.658-101.963 235.973S107.556 667.01 107.556 667.01s81.571 259.278 340.85 235.973c259.278-23.306 264.586-196.027 264.586-196.027l26.235-103.687-56.847 21.902 16.03-131.439s23.841-94.741-69.384-179.225c-93.223-84.484-157.315-154.402-116.529-256.366 40.785-101.963 256.364 14.567 256.364 14.567s209.754 84.484 244.713 434.073c0 0-20.393 125.269-17.479 157.315s21.635 100.386 21.635 100.386l4.271 44.705s-64.137-89.089-88.915-49.655c-187.943 299.126-590.648 340.087-822.617 56.054C-30.763 642.644-33.668 434.759 98.816 253.33z" fill="#0093DD" p-id="3311"></path></svg>