<?xml version="1.0" standalone="no"?><!DOCTYPE svg PUBLIC "-//W3C//DTD SVG 1.1//EN" "http://www.w3.org/Graphics/SVG/1.1/DTD/svg11.dtd"><svg t="1578495637580" class="icon" viewBox="0 0 1024 1024" version="1.1" xmlns="http://www.w3.org/2000/svg" p-id="5810" xmlns:xlink="http://www.w3.org/1999/xlink" width="200" height="200"><defs><style type="text/css"></style></defs><path d="M260.126184 222.992297S395.244398 52.594529 433.441278 29.090574c38.185069-23.503955 55.80713-46.996099 58.748077 0 2.940947 47.00791 11.751978 88.133926-49.937046 143.941055-61.689024 55.818941-132.189078 126.318995-173.315094 179.196988-163.263905 209.917484-63.47249 576.177608 235.004117 564.000434 199.68913-8.149613 381.508167-162.567054 346.630188-378.945173-3.744097-23.173246-74.007931-158.870201-73.618167-166.488317 1.039371-20.161433 29.114196-59.350439 58.09847-41.929166 10.370087 6.224414 16.996076 30.897662 27.259864 52.736261 96.141806 204.319055 94.629994 381.614467-70.500055 552.248456-19.275605 19.925212-43.051214 35.350421-68.433123 47.279564-90.649676 42.637828-201.815116 40.854362-201.815116 40.854362-101.244172-2.220474-198.460783-34.948846-272.693123-87.177233-38.893731-27.366163-71.48037-60.094534-95.04338-96.602436-53.704766-83.196914-67.417375-186.08282-48.980353-289.937231 11.811033-66.578791 36.850422-133.570969 73.027616-196.039521 64.606349-111.614259 82.252032-129.259942 82.252031-129.259942z" fill="#00923F" p-id="5811"></path><path d="M485.079113 343.181366l119.102454-2.834648-100.653621 196.02771h148.854445L527.622453 760.831294l-62.385875-8.527566 46.783501-146.326884-114.82686-9.933079z" fill="#00923F" p-id="5812"></path></svg>