<?xml version="1.0" standalone="no"?><!DOCTYPE svg PUBLIC "-//W3C//DTD SVG 1.1//EN" "http://www.w3.org/Graphics/SVG/1.1/DTD/svg11.dtd"><svg t="1578495956706" class="icon" viewBox="0 0 1024 1024" version="1.1" xmlns="http://www.w3.org/2000/svg" p-id="18417" xmlns:xlink="http://www.w3.org/1999/xlink" width="200" height="200"><defs><style type="text/css"></style></defs><path d="M610.17629313 341.08441738C650.3681576 341.08441738 682.9155559 373.6318157 682.9155559 413.82368016v196.38599491c0 40.15848252-32.54739831 72.70588086-72.73926277 72.70588083H413.79029822C373.6318157 682.94893786 341.08441738 650.3681576 341.08441738 610.20967507V413.82368016C341.08441738 373.6318157 373.6318157 341.08441738 413.82368016 341.08441738h196.35261297z" fill="#1296db" p-id="18418"></path><path d="M666.24379268 243.47623678C729.38882915 243.47623678 780.52372126 294.6111289 780.52372126 357.75616535v308.54007336c0 63.09259043-51.13489212 114.22748257-114.27992858 114.22748255H357.70371933C294.6111289 780.57616732 243.47623678 729.38882915 243.47623678 666.29623872V357.75616535C243.47623678 294.6111289 294.6111289 243.47623678 357.75616535 243.47623678h308.48762733z m-12.8492806 22.44690675H370.60544596c-57.84798567 0-104.73474847 46.88676279-104.73474846 104.73474849v282.7890661c0 57.84798567 46.88676279 104.73474847 104.73474846 104.73474848h282.78906612c57.84798567 0 104.73474847-46.88676279 104.73474848-104.73474848V370.65789203c0-57.90043173-46.88676279-104.73474847-104.73474848-104.7347485z" fill="#1296db" p-id="18419"></path><path d="M516.29996 104.399992c227.499982 0 411.999968 184.399986 411.999967 411.999968s-184.399986 411.999968-411.999967 411.999967-411.999968-184.399986-411.999968-411.999967 184.499986-411.999968 411.999968-411.999968" fill="#d81e06" p-id="18420"></path><path d="M514.19996 794.699938c-163.299987 0-250.19998-94.899993-250.199981-94.899993-41.399997 7.099999-103.499992 38.799997-103.499992 38.799997-12.499999-13.499999-17.299999-25.899998-17.299998-25.899998 14.299999-13.699999 99.199992-43.099997 99.199992-43.099996-4.1-5.1-12.899999-17.299999-12.899999-17.299999-67.399995 4-107.799992 21.599998-107.799992 21.599998-5.5-13.199999-12.899999-30.199998-12.899998-30.199997 17.999999-11.599999 107.799992-21.599998 107.799991-21.599999-2.7-4.4-8.599999-25.899998-8.599999-25.899998-98.799992 2.1-107.799992 8.599999-107.799992 8.6-4.1-9.399999-8.599999-30.199998-8.599999-30.199998 35.499997-9.499999 107.699992-8.499999 107.699991-8.499999-8.799999-97.399992 34.499997-150.999988 34.499998-150.999988 1.4-114.299991 34.499997-181.199986 34.499997-181.199986 52.599996 8.599999 125.09999 60.399995 125.09999 60.399995 44.299997-21.899998 177.799986-29.799998 237.299982 0 0 0 72.499994-51.799996 125.09999-60.399995 0 0 33.099997 66.899995 34.499997 181.199986 0 0 43.299997 53.599996 34.499998 150.999988 0 0 72.199994-1 107.799991 8.599999 0 0-4.6 20.799998-8.599999 30.199998 0 0-9.099999-6.499999-107.799992-8.6 0 0-5.9 21.499998-8.599999 25.899998 0 0 89.799993 9.999999 107.799991 21.599999 0 0-7.399999 16.999999-12.899999 30.199997 0 0-40.499997-17.599999-107.799991-21.599998 0 0-8.899999 12.099999-12.899999 17.299999 0 0 84.899993 29.499998 99.199992 43.099996 0 0-4.8 12.399999-17.299998 25.899998 0 0-62.199995-31.799998-103.499992-38.799997 0 0-86.799993 94.899993-250.199981 94.899993" fill="#ffffff" p-id="18421"></path><path d="M660.799948 436.599966c0-9.499999-7.699999-17.299999-17.299998-17.299999-9.499999 0-17.299999 7.699999-17.299999 17.299999V522.999959c0 9.499999 7.699999 17.299999 17.299999 17.299999 9.499999 0 17.299999-7.699999 17.299998-17.299999v-86.399993z m-258.799979 0c0-9.499999-7.699999-17.299999-17.299999-17.299999-9.499999 0-17.299999 7.699999-17.299999 17.299999V522.999959c0 9.499999 7.699999 17.299999 17.299999 17.299999 9.499999 0 17.299999-7.699999 17.299999-17.299999v-86.399993z m241.599981 146.599988s-4.6 68.999995-64.699995 68.999995c0 0-61.599995 1.9-64.599995-56.099996h-0.2c-3 57.199996-64.599995 56.099996-64.599995 56.099996-60.099995 0-64.699995-68.999995-64.699995-68.999995-57.199996 0-103.499992-46.399996-103.499992-103.499991s46.399996-103.499992 103.499992-103.499992 103.499992 46.299996 103.499992 103.499992c0 49.799996-35.199997 91.399993-82.099994 101.299992-3.2 49.799996 43.299997 53.999996 43.299997 53.999995 47.799996 0 47.799996-36.599997 47.499996-42.299996-7.799999-3.5-12.999999-9.299999-12.999999-15.899999 0-10.799999 13.499999-19.499998 30.199998-19.499999s30.199998 8.699999 30.199997 19.399999c0 6.599999-5.2 12.399999-12.999999 15.899999-0.3 5.8-0.4 42.399997 47.499997 42.399996 0 0 46.499996-4.2 43.299996-53.999995-46.999996-9.899999-82.199994-51.499996-82.199993-101.299992 0-57.199996 46.399996-103.499992 103.499992-103.499992s103.599992 46.299996 103.599992 103.499992-46.399996 103.499992-103.499992 103.499991z" fill="#d81e06" p-id="18422"></path></svg>