<?xml version="1.0" standalone="no"?><!DOCTYPE svg PUBLIC "-//W3C//DTD SVG 1.1//EN" "http://www.w3.org/Graphics/SVG/1.1/DTD/svg11.dtd"><svg t="1579348571259" class="icon" viewBox="0 0 1024 1024" version="1.1" xmlns="http://www.w3.org/2000/svg" p-id="3832" xmlns:xlink="http://www.w3.org/1999/xlink" width="200" height="200"><defs><style type="text/css"></style></defs><path d="M512.85455202 258.71953916l71.91270589 86.80218481 8.05306413 9.7187157 12.34030723 2.60710716 127.02405431 26.4621377-48.01422358 106.86242625-6.32947638 14.07837867 5.77908754 14.31012132 48.95567849 120.26006005-128.18276882 15.15018896-16.06267647 1.89739489-9.2986822 13.23831103-66.64055609 95.52150943-76.09856106-98.14310096-9.29868221-11.99269296-15.07776976-1.78152323-119.11582991-13.67282822 40.4246454-113.43812965 4.33069422-12.15201639-4.33069422-12.15201571-41.75716639-116.01626873 120.27454375-22.89909124 12.34030724-2.34639644 8.24135497-9.48697375 80.53064393-92.82749868M512.86903572 222.32142617c-9.96494271 0-19.9443698 4.11343597-27.11391449 12.36927532l-80.79135395 93.13166118-120.27454377 22.89909124a35.89117527 35.89117527 0 0 0-27.09943079 47.3045113L299.0862484 514.44778372 258.67608738 627.87142966a35.89117527 35.89117527 0 0 0 29.60515 47.71006108l119.37654062 14.07837868 76.09856107 98.14310029c7.19851279 9.26971414 17.77178049 13.87560345 28.34504821 13.87560412 11.12365723 0 22.23283075-5.09834268 29.37340735-15.2226095l67.16197752-95.55047749 128.18276882-15.15018896a35.87669157 35.87669157 0 0 0 29.06924486-49.04258273l-48.69496845-120.72354533 48.01422359-106.86242626a35.87669157 35.87669157 0 0 0-25.30342319-49.81023049L612.66330456 322.4053738l-72.15893291-87.09186361A35.71736813 35.71736813 0 0 0 512.86903572 222.32142617z" fill="#FFCD00" p-id="3833"></path><path d="M438.18989923 384.12139367l61.42634175 21.39276245 11.84785389 4.12791966 11.86233757-4.09895159 61.84637525-21.33482694 9.84907173 57.99365067 2.11465314 12.44169451 9.38558578 8.42964649 51.34552741 46.14579678-49.15845373 35.42768932-12.52859875 9.0234878-2.15810492 15.29502869-9.53042553 67.61097907-62.06363417-26.66491292-14.84602712-6.37292818-14.6577356 6.79296234-53.50363232 24.76751804-8.6613898-63.26580048-2.05671765-15.03431796-12.16650009-9.0814233-50.02748944-37.3106005 47.68109299-40.58396816 9.82010366-8.35722662 2.33191273-12.68792152 11.84785322-64.65625764m-23.59431983-46.23270035a5.69218397 5.69218397 0 0 0-5.59079602 4.64934111l-18.29320192 99.75081705-76.8517258 65.40942169a5.66321589 5.66321589 0 0 0 0.27519441 8.84968065l80.74790285 60.22417546 14.26666953 104.18289854a5.69218397 5.69218397 0 0 0 7.99512863 4.37414669l90.98803997-42.11926438 98.76590966 42.43791059a5.70666768 5.70666768 0 0 0 7.87925698-4.43208219l15.10673785-107.16658807 79.89335082-57.58810021a5.64873218 5.64873218 0 0 0 0.49245336-8.80622887l-79.54573655-71.49267174-15.87438561-93.49375985a5.64873218 5.64873218 0 0 0-7.41577171-4.43208217l-95.89809179 33.08129286L416.42055442 338.19285583a5.73563576 5.73563576 0 0 0-1.82497502-0.30416251z" fill="#FFCD00" p-id="3834"></path></svg>