<?xml version="1.0" standalone="no"?><!DOCTYPE svg PUBLIC "-//W3C//DTD SVG 1.1//EN" "http://www.w3.org/Graphics/SVG/1.1/DTD/svg11.dtd"><svg t="1578495932268" class="icon" viewBox="0 0 1024 1024" version="1.1" xmlns="http://www.w3.org/2000/svg" p-id="17655" xmlns:xlink="http://www.w3.org/1999/xlink" width="200" height="200"><defs><style type="text/css"></style></defs><path d="M409.16042 315.01S246.08342 400.284 9.71942 283.604c-43.626-8.807 61.372 127.107 279.362 152.758C489.13042 463.389 409.16042 315.01 409.16042 315.01zM870.47842 287.362s-55.354-65.25-88.44-72.718-43.384 17.654-36.185 34.682c7.198 17.029 30.263 35.407 30.263 35.407l94.362 2.629z" fill="#d9874b" p-id="17656"></path><path d="M315.48042 576.507S182.80442 299.759 500.06242 307.643c141.667 22.041 232.003 76.113 280.096 40.931 69.235-53.68-74.093-2.678-88.14-50.183-18.918-74.542 324.118 7.26 332 64.002-1.98 42.054-52.554 54.646-102.173 47.289-12.905-2.699-27.841-12.332-35.627-19.43-22.381-14.065 21.09 25.919 21.09 25.919 6.51 0.129-70.024 8.767-119.813 36.996-49.39 27.999-123.886 93.706-140.051 102.953 16.382 22.644 3.12 33.359 3.12 33.359s-144.013 133.037-335.085-12.972z" fill="#d9874b" p-id="17657"></path><path d="M256.84342 676.542s38.369-0.797 131.251 41.817c32.537 14.929 65.441 46.478 104.839 85.279 29 32.816 39.056-57.235 6.405-90.373-24.867-27.637-52.835-32.255-85.626-41.128s41.161-0.872 68.493-12.869c17.249-7.574 94.484-80.061 35.355-164.664s-121.895-39.098-142.271-17.132c-20.378 21.967-69.699 90.545-112.892 122.87-45.196 33.832-39.469 76.406-5.555 76.2zM561.34042 428.843s-8.563 50.615 59.613 45.904c68.179-4.717 128.923-34.965 134.236-54.948 5.31-19.98-4.159-38.735-30.745-33.196-92.454 27.351-138.165 14.59-151.403 24.285-13.233 9.692-11.7 17.956-11.7 17.956z" fill="#d9874b" p-id="17658"></path></svg>