<?xml version="1.0" standalone="no"?><!DOCTYPE svg PUBLIC "-//W3C//DTD SVG 1.1//EN" "http://www.w3.org/Graphics/SVG/1.1/DTD/svg11.dtd"><svg t="1579014641403" class="icon" viewBox="0 0 1024 1024" version="1.1" xmlns="http://www.w3.org/2000/svg" p-id="8485" xmlns:xlink="http://www.w3.org/1999/xlink" width="200" height="200"><defs><style type="text/css"></style></defs><path d="M870.4 1024H153.6a153.6 153.6 0 0 1-153.6-153.6V153.6a153.6 153.6 0 0 1 153.6-153.6h716.8a153.6 153.6 0 0 1 153.6 153.6v716.8a153.6 153.6 0 0 1-153.6 153.6" fill="#09BB07" p-id="8486"></path><path d="M779.008 597.6832a7366.9888 7366.9888 0 0 0-106.88-75.6224c-0.9728-1.6384-3.2768-8.8064-1.6384-23.1424 0.3072-3.2512 3.2512-6.8352 8.1408-13.056 6.528-7.808 14.976-18.8672 20.5312-35.1744 5.2224-16.64 18.8928-88.064-14.976-135.2704-11.6224-16.0768-33.4592-34.944-72.0896-38.144 42.6496 67.84 28.1344 160.1024 18.432 191.0528-8.704 25.6512-21.5808 43.008-31.8464 55.296-1.3568 1.7664-2.56 3.1744-3.4816 4.4032l-0.0768 2.048c28.032 19.456 87.8336 61.8496 124.288 88.1664a99.7632 99.7632 0 0 1 42.0608 81.408v7.68c23.424-5.9392 40.9088-27.136 40.3456-52.2752v-13.3632c0-17.6128-8.448-33.8944-22.784-44.032" fill="#FFFFFF" p-id="8487"></path><path d="M662.0672 784.7936H290.3808a68.352 68.352 0 0 1-68.2496-68.2496v-16.8704c0-22.1952 10.7008-42.752 28.8-55.5008 43.1616-30.4384 117.1712-83.0464 134.8608-95.3856 1.2032-2.048 4.096-11.0848 2.048-29.184-0.4352-3.712-4.096-8.6272-10.2912-16.4608-7.808-10.24-18.9184-23.808-25.856-44.3904-7.0144-20.9664-24.2944-111.0016 18.8672-170.624 16.0512-22.2208 47.2832-48.896 105.2672-48.896 57.9584 0 89.1904 26.6752 105.2416 48.896 42.752 59.648 25.4976 149.6576 18.944 170.624-7.0144 20.5568-17.7152 34.56-25.9328 44.3904-6.144 7.8336-9.856 12.3392-10.24 16.4608-2.0992 18.0992 0.768 27.136 2.048 29.184 17.664 11.9296 92.0576 64.5632 134.8096 95.3856a67.6608 67.6608 0 0 1 28.8 55.5008v16.896c0.8192 37.376-30.0288 68.224-67.4304 68.224" fill="#FFFFFF" p-id="8488"></path></svg>