<?xml version="1.0" standalone="no"?><!DOCTYPE svg PUBLIC "-//W3C//DTD SVG 1.1//EN" "http://www.w3.org/Graphics/SVG/1.1/DTD/svg11.dtd"><svg t="1578495707204" class="icon" viewBox="0 0 1024 1024" version="1.1" xmlns="http://www.w3.org/2000/svg" p-id="6864" xmlns:xlink="http://www.w3.org/1999/xlink" width="200" height="200"><defs><style type="text/css"></style></defs><path d="M413.527877 495.649987l-41.752001 65.598476c25.535453 29.468527 54.271695 57.342564 98.397714 77.515808 12.094497 4.476381 26.834666 4.960634 44.232317 1.48819 16.58269-8.102368 32.657505-23.007892 38.267746-40.748063 2.97638-14.161428 1.48819-24.425216-1.996064-36.271681-13.877963-18.318912-47.69295-39.980346-137.149712-67.58273z" fill="#DA251D" p-id="6865"></path><path d="M422.964892 520.004337c-9.188983 9.685047-16.8071 20.952772-23.350411 33.295301-4.488192 12.755915 4.299216 18.87403 13.913396 13.913397 9.023629-8.444888 15.472453-21.862222 21.850411-34.287428 2.822837-18.484266-12.070875-14.492137-12.413396-12.92127zM377.740448 588.071318c-8.291345 1.48819-10.606307 8.279534-10.925205 16.417336 26.066949 24.838602 49.996101 49.736259 85.464632 70.559109 42.236253 22.653561 85.122113 11.031505 99.389841-44.232317-8.338589 7.653549-16.92521 15.354343-33.295302 24.354349-13.748042 1.157481-30.803173 3.307089-47.208697 0.496064-18.425211-0.90945-84.094553-51.933111-93.425269-67.58273zM439.476716 488.728722l29.574826 11.622056c35.078767-197.941097-138.15365-262.263981-226.098599-174.330842 128.374114-10.74804 194.941095 43.842553 196.523773 162.708786zM61.311071 305.799448C-47.173265 474.224774-7.476384 655.476882 310.74827 785.622651l23.255924-46.500035C84.070931 646.382387 12.35434 494.374396 61.29926 305.787637z" fill="#DA251D" p-id="6866"></path><path d="M372.035719 675.709181l-19.015763 54.956735C86.055184 628.760326-5.71654 434.480649 105.685121 265.630126c126.130018-132.460732 302.976611-120.472534 405.838894 42.283497 32.527584 70.45281 25.440964 140.90562 12.68505 211.370241l-38.043337-16.913399c8.633865-75.212656 1.240158-143.208772-46.500036-190.240304-95.114246-66.933122-173.326905-52.133898-234.626164 44.385861-45.047279 136.334751 3.484255 244.842708 166.98438 319.181348z" fill="#DA251D" p-id="6867"></path><path d="M456.165705 222.649778c35.633886 18.590565 59.905558 59.893747 79.015809 111.543392 41.338614-104.338663 114.519773-182.315101 275.728558-187.441089-40.240188-26.362225-83.586678-50.645708-148.712712-60.413432-102.378031 14.338594-157.570987 72.212654-206.031655 136.311129z" fill="#DA251D" p-id="6868"></path><path d="M700.476917 82.405575c182.527699 46.535469 234.307267 188.291483 167.362333 340.405774-51.460669 116.905602-199.842673 212.397801-327.968756 354.307359 34.19294 22.842537 30.53152 38.114203 29.669314 91.594558-4.724413 18.283479 36.968532 45.153578 47.728383 72.885883 84.212663-161.25603 308.728584-291.555342 373.488476-443.149947 93.696922-266.976583-77.421319-398.858574-290.27975-416.043627z" fill="#DA251D" p-id="6869"></path></svg>