<?xml version="1.0" standalone="no"?><!DOCTYPE svg PUBLIC "-//W3C//DTD SVG 1.1//EN" "http://www.w3.org/Graphics/SVG/1.1/DTD/svg11.dtd"><svg t="1579014585296" class="icon" viewBox="0 0 1024 1024" version="1.1" xmlns="http://www.w3.org/2000/svg" p-id="6197" xmlns:xlink="http://www.w3.org/1999/xlink" width="200" height="200"><defs><style type="text/css"></style></defs><path d="M307.2 204.8h409.6c18.773333 0 34.133333 15.36 34.133333 34.133333v544.426667c0 18.773333-15.36 34.133333-34.133333 34.133333-5.12 0-9.386667-0.853333-13.653333-2.56l-191.146667-85.333333-191.146667 85.333333c-17.066667 7.68-37.546667 0-45.226666-17.066666-1.706667-4.266667-2.56-9.386667-2.56-13.653334v-544.426666c0-19.626667 15.36-34.986667 34.133333-34.986667z m98.133333 128c-11.946667 0-21.333333 9.386667-21.333333 21.333333s9.386667 21.333333 21.333333 21.333334h213.333334c11.946667 0 21.333333-9.386667 21.333333-21.333334s-9.386667-21.333333-21.333333-21.333333h-213.333334z m0 110.933333c-11.946667 0-21.333333 9.386667-21.333333 21.333334s9.386667 21.333333 21.333333 21.333333h213.333334c11.946667 0 21.333333-9.386667 21.333333-21.333333s-9.386667-21.333333-21.333333-21.333334h-213.333334z m0 110.933334c-11.946667 0-21.333333 9.386667-21.333333 21.333333s9.386667 21.333333 21.333333 21.333333h110.933334c11.946667 0 21.333333-9.386667 21.333333-21.333333s-9.386667-21.333333-21.333333-21.333333h-110.933334z" fill="#FFFFFF" p-id="6198"></path><path d="M51.2 0h921.6c28.16 0 51.2 23.04 51.2 51.2v921.6c0 28.16-23.04 51.2-51.2 51.2h-921.6c-28.16 0-51.2-23.04-51.2-51.2v-921.6c0-28.16 23.04-51.2 51.2-51.2z" fill="#3973E6" p-id="6199"></path><path d="M307.2 204.8h409.6c18.773333 0 34.133333 15.36 34.133333 34.133333v544.426667c0 18.773333-15.36 34.133333-34.133333 34.133333-5.12 0-9.386667-0.853333-13.653333-2.56l-191.146667-85.333333-191.146667 85.333333c-17.066667 7.68-37.546667 0-45.226666-17.066666-1.706667-4.266667-2.56-9.386667-2.56-13.653334v-544.426666c0-19.626667 15.36-34.986667 34.133333-34.986667z m98.133333 128c-11.946667 0-21.333333 9.386667-21.333333 21.333333s9.386667 21.333333 21.333333 21.333334h213.333334c11.946667 0 21.333333-9.386667 21.333333-21.333334s-9.386667-21.333333-21.333333-21.333333h-213.333334z m0 110.933333c-11.946667 0-21.333333 9.386667-21.333333 21.333334s9.386667 21.333333 21.333333 21.333333h213.333334c11.946667 0 21.333333-9.386667 21.333333-21.333333s-9.386667-21.333333-21.333333-21.333334h-213.333334z m0 110.933334c-11.946667 0-21.333333 9.386667-21.333333 21.333333s9.386667 21.333333 21.333333 21.333333h110.933334c11.946667 0 21.333333-9.386667 21.333333-21.333333s-9.386667-21.333333-21.333333-21.333333h-110.933334z" fill="#FFFFFF" p-id="6200"></path></svg>