<?xml version="1.0" standalone="no"?><!DOCTYPE svg PUBLIC "-//W3C//DTD SVG 1.1//EN" "http://www.w3.org/Graphics/SVG/1.1/DTD/svg11.dtd"><svg t="1578496204665" class="icon" viewBox="0 0 1879 1024" version="1.1" xmlns="http://www.w3.org/2000/svg" p-id="27925" xmlns:xlink="http://www.w3.org/1999/xlink" width="366.9921875" height="200"><defs><style type="text/css"></style></defs><path d="M1445.290173 368.610405s-25.156069-108.319075-129.923699-125.336417c0 0-42.469364-183.639306-234.987283-133.17919 0 0-134.65896-152.268208-291.07052 0 0 0-175.944509-59.634682-235.135261 133.327167 0 0-135.842775 15.685549-136.878612 189.706359-1.035838 174.020809 213.974566 349.965318 249.784971 366.390751 0 0-57.710983 102.843931 53.715607 157.003468 111.278613 54.307514 407.528324 21.456647 447.630058-10.358381 40.101734-31.667052 62.298266-74.43237 34.182658-146.645087-0.147977 0.147977 289.146821-172.54104 242.682081-430.90867zM1077.271676 228.476301s78.723699-78.871676 136.434682 14.945664c55.047399 89.378035-107.13526 476.337572-207.463583 507.708671 0 0 97.960694-262.65896 71.028901-522.654335z m-237.206936 13.761849c12.282081-99.736416 85.086705-104.323699 85.086705-104.323699s140.134104-44.836994 102.252023 294.473988c-37.734104 339.163006-92.633526 324.809249-92.633526 324.809249-77.835838-27.96763-106.987283-415.223121-94.705202-514.959538z m-183.787283 1.183815c57.710983-93.965318 136.434682-14.945665 136.434682-14.945664-26.931792 259.995376 71.028902 522.654335 71.028901 522.654335-100.180347-31.371098-262.363006-418.330636-207.463583-507.708671z m-139.690174 201.248555c-10.210405-132.73526 86.27052-99.736416 86.27052-99.736416 7.10289 162.182659 166.769942 396.282081 166.91792 396.282081-63.186127-23.380347-242.978035-163.810405-253.18844-296.545665z m595.606937 440.971098c-94.853179 41.877457-332.8 14.501734-352.036995-1.183815-14.057803-11.39422 22.492486-67.477457 22.492486-67.477456 13.909827 8.730636 44.393064-5.179191 44.393064-5.179191 17.313295 16.721387 75.616185 5.327168 75.616185 5.327168 32.850867 23.084393 70.880925 0 70.880924 0 34.034682 12.430058 75.616185-5.327168 75.616185-5.327168 11.098266 9.322543 43.505202 5.179191 43.505203 5.327168 41.72948 59.634682 19.532948 68.513295 19.532948 68.513294z m-11.690174-144.425433s159.519075-234.099422 166.769942-396.282081c0 0 96.628902-32.998844 86.418498 99.736416-10.210405 132.883237-190.002312 273.165318-253.18844 296.545665z" fill="#d4237a" p-id="27926"></path></svg>