<?xml version="1.0" standalone="no"?><!DOCTYPE svg PUBLIC "-//W3C//DTD SVG 1.1//EN" "http://www.w3.org/Graphics/SVG/1.1/DTD/svg11.dtd"><svg t="1579348704472" class="icon" viewBox="0 0 1024 1024" version="1.1" xmlns="http://www.w3.org/2000/svg" p-id="5990" xmlns:xlink="http://www.w3.org/1999/xlink" width="200" height="200"><defs><style type="text/css"></style></defs><path d="M919.341 934.071l-36.953-580.079c-1.082-9.866-9.428-17.346-19.349-17.346H707.722v-77.753c0-107.498-87.143-194.639-194.641-194.639-107.496 0-194.639 87.141-194.639 194.639v77.753H164.12c-9.903 0-18.23 7.433-19.332 17.268l-40.201 583.902a19.459 19.459 0 0 0 4.808 15.157 19.465 19.465 0 0 0 14.522 6.503h776.491c0.152 0.01 0.284 0 0.38 0 10.76 0 19.464-8.718 19.464-19.464 0-2.073-0.323-4.069-0.911-5.941zM357.369 258.892c0-85.996 69.714-155.712 155.712-155.712s155.714 69.716 155.714 155.712v77.753H357.369v-77.753zM145.721 920.545l35.771-544.972h136.951v44.252c-11.633 6.731-19.466 19.3-19.466 33.709 0 21.498 17.428 38.928 38.928 38.928 21.5 0 38.928-17.43 38.928-38.928 0-14.408-7.832-26.977-19.464-33.708v-44.253h311.427v44.252c-11.633 6.731-19.466 19.3-19.466 33.709 0 21.498 17.428 38.928 38.928 38.928s38.928-17.43 38.928-38.928c0-14.408-7.832-26.977-19.464-33.708v-44.253H845.59l33.112 544.972H145.721z" fill="#d81e06" p-id="5991"></path></svg>