<?xml version="1.0" standalone="no"?><!DOCTYPE svg PUBLIC "-//W3C//DTD SVG 1.1//EN" "http://www.w3.org/Graphics/SVG/1.1/DTD/svg11.dtd"><svg t="1578496185922" class="icon" viewBox="0 0 1024 1024" version="1.1" xmlns="http://www.w3.org/2000/svg" p-id="26950" xmlns:xlink="http://www.w3.org/1999/xlink" width="200" height="200"><defs><style type="text/css"></style></defs><path d="M742.4 175.786667c0-23.893333-8.533333-47.786667-23.893333-63.146667-15.36-17.066667-35.84-27.306667-59.733334-27.306667-25.6 0-51.2 10.24-69.973333 30.72-30.72 29.013333-42.666667 124.586667-46.08 174.08 47.786667-1.706667 139.946667-10.24 168.96-40.96 18.773333-18.773333 30.72-46.08 30.72-73.386666zM496.64 290.133333c-3.413333-51.2-15.36-145.066667-44.373333-175.786666C431.786667 95.573333 406.186667 85.333333 380.586667 85.333333c-23.893333 0-46.08 10.24-61.44 27.306667-15.36 17.066667-23.893333 39.253333-23.893334 63.146667 0 27.306667 11.946667 54.613333 32.426667 75.093333 29.013333 29.013333 121.173333 37.546667 168.96 39.253333zM197.973333 896c0 23.893333 18.773333 42.666667 40.96 42.666667h163.84V530.773333h-204.8v365.226667zM621.226667 938.666667H785.066667c22.186667 0 40.96-18.773333 40.96-42.666667V530.773333h-204.8V938.666667zM877.226667 331.093333h-256v162.133334h256s1.706667 0 1.706666-1.706667l-1.706666-160.426667c1.706667 1.706667 1.706667 0 0 0zM145.066667 332.8v158.72s0 1.706667 1.706666 1.706667h256v-162.133334l-257.706666 1.706667c0-1.706667 0 0 0 0zM433.493333 331.093333h157.013334v162.133334h-157.013334zM433.493333 525.653333h157.013334v411.306667h-157.013334z" p-id="26951"></path></svg>