<?xml version="1.0" standalone="no"?><!DOCTYPE svg PUBLIC "-//W3C//DTD SVG 1.1//EN" "http://www.w3.org/Graphics/SVG/1.1/DTD/svg11.dtd"><svg t="1579014519592" class="icon" viewBox="0 0 1024 1024" version="1.1" xmlns="http://www.w3.org/2000/svg" p-id="3947" xmlns:xlink="http://www.w3.org/1999/xlink" width="200" height="200"><defs><style type="text/css"></style></defs><path d="M620.7 823.3c-57 0-108.9-0.5-120.5-0.6-78.2-0.8-262.9-3.3-290-10-59-14.7-67.8-55.8-67.8-78.9 0-37.3 28-77.4 78.8-112.9 48.6-33.9 113.1-59.9 181.7-73.3 10.5-2.6 14.6-12.1 15.9-16 3.5-10.9 0.7-22.8-7.3-32-29.5-33.5-76.2-115.9-76.2-194.6 0-57.3 17.5-106.7 50.5-142.6 31.9-34.7 76.1-53.9 124.5-53.9 48.4 0 92.6 19.1 124.5 53.9 33.1 36 50.5 85.3 50.5 142.6 0 36.6-7.3 74.4-21.1 109.1-13.7 34.5-33.2 64.5-56.4 87-11 11.8-9.8 23.2-8.1 29 2.6 8.7 9.2 15.3 17.4 17.5 68.7 13.3 133.4 39.3 182.1 73.2 50.9 35.5 79 75.6 79 113 0 20.9-9.2 41.1-26 56.7-15.6 14.5-36.7 24.5-61 28.8-17.9 3.2-98.4 4-170.5 4zM510.4 158.5c-73.6 0-125.1 60.2-125.1 146.5 0 60.8 38 132.4 63.6 161.6 19.8 22.5 26.3 52.5 17.4 80.3-8.1 25.3-27.7 43.8-52.5 49.5l-0.9 0.2c-62.1 12-120 35.2-163.1 65.3-42.3 29.5-57.4 56.5-57.4 71.9 0 11.1 2.3 23.5 29.9 30.4 13.4 3 113.9 7 280 8.6 157.6 1.5 266.3-0.1 280.4-2.6 26.5-4.7 45.8-20 45.8-36.3 0-15.4-15.1-42.4-57.6-72-43.3-30.2-101.4-53.3-163.6-65.3l-1.1-0.2c-25.7-6.2-46.5-26.1-54.1-52-8-27.1-0.5-56.3 20.1-77.9l0.8-0.8c38-36.5 62.6-99.5 62.6-160.5-0.1-86.5-51.6-146.7-125.2-146.7z" fill="#888888" p-id="3948"></path><path d="M895.4 372.2H738.3c-11.9 0-21.6-9.7-21.6-21.6 0-11.9 9.7-21.6 21.6-21.6h157.1c11.9 0 21.6 9.7 21.6 21.6 0 11.9-9.7 21.6-21.6 21.6z" fill="#88878A" p-id="3949"></path><path d="M895.4 372.7H738.3c-12.2 0-22.1-9.9-22.1-22.1s9.9-22.1 22.1-22.1h157.1c12.2 0 22.1 9.9 22.1 22.1s-9.9 22.1-22.1 22.1z m-157.1-43.1c-11.6 0-21.1 9.4-21.1 21.1s9.4 21.1 21.1 21.1h157.1c11.6 0 21.1-9.4 21.1-21.1s-9.4-21.1-21.1-21.1H738.3z" fill="#888888" p-id="3950"></path><path d="M895.4 471.2H769.5c-11.9 0-21.6-9.7-21.6-21.6 0-11.9 9.7-21.6 21.6-21.6h125.9c11.9 0 21.6 9.7 21.6 21.6 0 11.9-9.7 21.6-21.6 21.6z" fill="#88878A" p-id="3951"></path><path d="M895.4 471.7H769.5c-12.2 0-22.1-9.9-22.1-22.1s9.9-22.1 22.1-22.1h125.9c12.2 0 22.1 9.9 22.1 22.1s-9.9 22.1-22.1 22.1z m-125.9-43.1c-11.6 0-21.1 9.4-21.1 21.1s9.4 21.1 21.1 21.1h125.9c11.6 0 21.1-9.4 21.1-21.1s-9.4-21.1-21.1-21.1H769.5z" fill="#888888" p-id="3952"></path><path d="M895.4 570.2h-90.1c-11.9 0-21.6-9.7-21.6-21.6 0-11.9 9.7-21.6 21.6-21.6h90.1c11.9 0 21.6 9.7 21.6 21.6 0 11.9-9.7 21.6-21.6 21.6z" fill="#88878A" p-id="3953"></path><path d="M895.4 570.7h-90.1c-12.2 0-22.1-9.9-22.1-22.1 0-12.2 9.9-22.1 22.1-22.1h90.1c12.2 0 22.1 9.9 22.1 22.1 0 12.2-9.9 22.1-22.1 22.1z m-90-43.1c-11.6 0-21.1 9.4-21.1 21.1s9.4 21.1 21.1 21.1h90.1c11.6 0 21.1-9.4 21.1-21.1s-9.4-21.1-21.1-21.1h-90.1z" fill="#888888" p-id="3954"></path></svg>