<?xml version="1.0" standalone="no"?><!DOCTYPE svg PUBLIC "-//W3C//DTD SVG 1.1//EN" "http://www.w3.org/Graphics/SVG/1.1/DTD/svg11.dtd"><svg t="1578496006832" class="icon" viewBox="0 0 1024 1024" version="1.1" xmlns="http://www.w3.org/2000/svg" p-id="21759" xmlns:xlink="http://www.w3.org/1999/xlink" width="200" height="200"><defs><style type="text/css"></style></defs><path d="M998.4 934.4l-44.8 0L953.6 435.2c0-44.8-38.4-83.2-83.2-83.2L768 352c-12.8 0-25.6 12.8-25.6 25.6s12.8 25.6 25.6 25.6l102.4 0c12.8 0 25.6 12.8 25.6 25.6l0 499.2-192 0L704 115.2c0-44.8-38.4-83.2-83.2-83.2L160 32c-44.8 0-83.2 38.4-83.2 83.2l0 819.2L25.6 934.4C12.8 934.4 0 947.2 0 960s12.8 25.6 25.6 25.6l51.2 0L704 985.6l288 0c12.8 0 25.6-12.8 25.6-25.6S1011.2 934.4 998.4 934.4zM134.4 934.4 134.4 115.2c0-12.8 12.8-25.6 25.6-25.6l467.2 0c12.8 0 25.6 12.8 25.6 25.6l0 819.2L134.4 934.4z" fill="#1aac19" p-id="21760"></path><path d="M505.6 281.6 281.6 281.6c-12.8 0-25.6 12.8-25.6 25.6s12.8 25.6 25.6 25.6l224 0c12.8 0 25.6-12.8 25.6-25.6S518.4 281.6 505.6 281.6z" fill="#1aac19" p-id="21761"></path><path d="M505.6 480 281.6 480c-12.8 0-25.6 12.8-25.6 25.6 0 12.8 12.8 25.6 25.6 25.6l224 0c12.8 0 25.6-12.8 25.6-25.6C531.2 492.8 518.4 480 505.6 480z" fill="#1aac19" p-id="21762"></path><path d="M505.6 646.4 281.6 646.4c-12.8 0-25.6 12.8-25.6 25.6S262.4 704 281.6 704l224 0c12.8 0 25.6-12.8 25.6-25.6S518.4 646.4 505.6 646.4z" fill="#1aac19" p-id="21763"></path></svg>