<?xml version="1.0" standalone="no"?><!DOCTYPE svg PUBLIC "-//W3C//DTD SVG 1.1//EN" "http://www.w3.org/Graphics/SVG/1.1/DTD/svg11.dtd"><svg t="1579348680202" class="icon" viewBox="0 0 1024 1024" version="1.1" xmlns="http://www.w3.org/2000/svg" p-id="5226" xmlns:xlink="http://www.w3.org/1999/xlink" width="200" height="200"><defs><style type="text/css"></style></defs><path d="M377.578667 392.832c0.490667 0 1.984 0 3.349333 1.429333 1.045333 1.066667 1.258667 2.176 1.301333 2.88L345.450667 884.693333h-72.256l-36.778667-487.552a4.458667 4.458667 0 0 1 1.301333-2.88c1.365333-1.429333 2.858667-1.429333 3.349334-1.429333h136.512m0-53.866667h-136.490667a58.538667 58.538667 0 0 0-58.496 60.608l40.384 535.381334c0.064 1.984 1.706667 3.584 3.712 3.584h165.290667c2.005333 0 3.626667-1.578667 3.712-3.584l40.384-535.381334a58.538667 58.538667 0 0 0-58.496-60.608zM309.226667 131.221333c29.418667 0 53.333333 23.936 53.333333 53.333334s-23.914667 53.333333-53.333333 53.333333-53.333333-23.936-53.333334-53.333333 23.914667-53.333333 53.333334-53.333334m0-53.333333a106.666667 106.666667 0 1 0 0.021333 213.354667 106.666667 106.666667 0 0 0-0.021333-213.354667z" fill="#3984E1" p-id="5227"></path><path d="M272 884.672h73.344v53.866667H272zM296 392.832h-79.104v-30.442667c0-12.928 10.474667-23.424 23.424-23.424h55.701333v53.866667zM394.56 392.832h-62.122667v-53.866667h49.194667c7.125333 0 12.906667 5.781333 12.906667 12.906667v40.96z" fill="#626EE6" p-id="5228"></path><path d="M782.912 392.832c0.490667 0 1.984 0 3.349333 1.429333 1.045333 1.066667 1.258667 2.176 1.301334 2.88L750.784 884.693333h-72.256l-36.778667-487.552a4.458667 4.458667 0 0 1 1.301334-2.88c1.365333-1.429333 2.858667-1.429333 3.349333-1.429333h136.512m0-53.866667h-136.490667a58.538667 58.538667 0 0 0-58.496 60.608l40.384 535.381334c0.064 1.984 1.706667 3.584 3.712 3.584h165.290667c2.005333 0 3.626667-1.578667 3.712-3.584l40.384-535.381334a58.538667 58.538667 0 0 0-58.496-60.608zM714.56 131.221333c29.418667 0 53.333333 23.936 53.333333 53.333334s-23.914667 53.333333-53.333333 53.333333-53.333333-23.936-53.333333-53.333333 23.914667-53.333333 53.333333-53.333334m0-53.333333a106.666667 106.666667 0 1 0 0.021333 213.354667 106.666667 106.666667 0 0 0-0.021333-213.354667z" fill="#3984E1" p-id="5229"></path><path d="M677.333333 884.672h73.344v53.866667H677.333333zM701.333333 392.832h-79.104v-30.442667c0-12.928 10.474667-23.424 23.424-23.424h55.701334v53.866667zM799.893333 392.832h-62.122666v-53.866667h49.194666c7.125333 0 12.906667 5.781333 12.906667 12.906667v40.96z" fill="#626EE6" p-id="5230"></path></svg>