<?xml version="1.0" standalone="no"?><!DOCTYPE svg PUBLIC "-//W3C//DTD SVG 1.1//EN" "http://www.w3.org/Graphics/SVG/1.1/DTD/svg11.dtd"><svg class="icon" width="200px" height="200.00px" viewBox="0 0 1024 1024" version="1.1" xmlns="http://www.w3.org/2000/svg"><path fill="#000000" d="M512 121.197c218.262 0 395.833 177.572 395.833 395.833S730.262 912.864 512 912.864 116.167 735.292 116.167 517.03 293.738 121.197 512 121.197m0-83.333c-264.638 0-479.167 214.539-479.167 479.167 0 264.648 214.528 479.166 479.167 479.166s479.167-214.518 479.167-479.166c0-264.629-214.528-479.167-479.167-479.167zM619.061 410.076l-46.59 167.328-167.532 46.579 46.58-167.316 167.542-46.591m62.133-103.769l-264.729 73.608c-23.021 0-41.667 18.636-41.667 41.626l-73.659 264.567c0 22.99 18.656 41.646 41.667 41.646l264.729-73.609c23.011 0 41.667-18.656 41.667-41.646l73.659-264.566c0-22.991-18.656-41.626-41.667-41.626z" /></svg>